<?xml version="1.0" encoding="UTF-8"?>
<!-- Created with EazyDraw for Mac ( https://www.eazydraw.com/ ) -->

<svg
    version="1.1"
    xmlns:dc="http://purl.org/dc/elements/1.1/"
    xmlns:cc="http://creativecommons.org/ns#"
    xmlns:rdf="http://www.w3.org/1999/02/22-rdf-syntax-ns#"
    xmlns:svg="http://www.w3.org/2000/svg"
    xmlns:xlink="http://www.w3.org/1999/xlink"
    xmlns="http://www.w3.org/2000/svg"
    width="222"
    height="222"
    viewBox="0, 0, 511, 511"
    preserveAspectRatio="none"
    id="svg2">
   <defs
       id="defs_77F918AE">
      <linearGradient id="linearStops_4B38DD7E">
         <stop id="stop_4B38DD7E_0" offset="0" style="stop-color:#5772FF;stop-opacity:1;"/>
         <stop id="stop_4B38DD7E_1" offset="1" style="stop-color:#FB00AE;stop-opacity:1;"/>
      </linearGradient>
      <linearGradient id="linearGradient_4B38DD7E" x1="1" y1="0.5" x2="0" y2="0.5" gradientUnits="objectBoundingBox" xlink:href="#linearStops_4B38DD7E"/>
      <linearGradient id="linearStops_6B38DD7E">
         <stop id="stop_6B38DD7E_0" offset="0" style="stop-color:#69C3C6;stop-opacity:1;"/>
         <stop id="stop_6B38DD7E_1" offset="1" style="stop-color:#FFFD10;stop-opacity:1;"/>
      </linearGradient>
      <linearGradient id="linearGradient_6B38DD7E" x1="1" y1="0.5" x2="0" y2="0.5" gradientUnits="objectBoundingBox" xlink:href="#linearStops_6B38DD7E"/>
   </defs>
   <metadata
       id="metadata7">
      <rdf:RDF>
         <cc:Work
             rdf:about="">
            <dc:format>image/svg+xml</dc:format>
            <dc:type rdf:resource="http://purl.org/dc/dcmitype/StillImage"/>
            <dc:title></dc:title>
         </cc:Work>
      </rdf:RDF>
   </metadata>
   <g
       id="layer_Paper"
       style="fill:#000000;fill-opacity:1;stroke:#000000;stroke-opacity:1;fill-rule:nonzero;stroke-linecap:square;stroke-linejoin:miter;stroke-width:1;stroke-miterlimit:10">
      <g
          id="0B38DD7E">
         <g
             id="vectorGradient_2B38DD7E">
            <g
                id="gradientWithClip_2B38DD7E">
               <clipPath
                   id="gradientClip_2B38DD7E_clip">
                  <path
                      d="M63.0111851676,357.597447137 C91.2029351538,417.248945931 147.705274815,459.234395785 231.572524757,461.943523411 C245.618976757,463.899202199 289.44095201,452.901116888 303.47107645,452.903044448 C334.325571699,459.494238311 362.359110659,446.018256877 375.856726109,441.421330779
C534.49385758,368.095939365 477.973478233,80.4071196732 312.639855259,29.0042113194 C291.678080884,23.0495511407 270.031463657,20.5645461031 248.63962061,19.2880295362 C214.581775361,18.5356665571 181.793949671,26.8455080218 152.527407847,39.9865870228
C129.639676889,50.4367164144 111.602637074,67.2827741528 96.7345308811,85.8482486261 C37.3267587076,175.008133659 26.7646441795,280.902682412 63.0111851676,357.597447137 z"
                      clip-rule="nonzero"/>
               </clipPath>
               <g
                   id="gradientVectors_2B38DD7E"
                   clip-path="url(#gradientClip_2B38DD7E_clip)"
                   style="fill:none;stroke-linecap:round;stroke-linejoin:bevel;stroke-width:5.289771016267">
                  <path id="gv_2B38DD7E_0" d="M475.970868282,22.7775314792 C581.109239599,127.915902797 581.109239599,298.378883102 475.970868282,403.51725442 C370.832496964,508.655625737 200.369516659,508.655625737 95.2311453414,403.51725442 C-9.90722597606,298.378883102 -9.90722597606,127.915902797 95.2311453414,22.7775314792
C200.369516659,-82.3608398382 370.832496964,-82.3608398382 475.970868282,22.7775314792" style="stroke:#168702"/>
                  <path id="gv_2B38DD7E_1" d="M474.057603343,24.6907964186 C578.139307612,128.772500688 578.139307612,297.522285211 474.057603343,401.60398948 C369.975899074,505.685693749 201.22611455,505.685693749 97.1444102808,401.60398948 C-6.937293988244,297.522285211 -6.937293988244,128.772500688 97.1444102808,24.6907964186
C201.22611455,-79.3909078504 369.975899074,-79.3909078504 474.057603343,24.6907964186" style="stroke:#168702"/>
                  <path id="gv_2B38DD7E_2" d="M472.144338403,26.604061358 C575.169375624,129.629098579 575.169375624,296.66568732 472.144338403,399.690724541 C369.119301183,502.715761762 202.082712441,502.715761762 99.0576752202,399.690724541 C-3.967362000427,296.66568732 -3.967362000427,129.629098579 99.0576752202,26.604061358
C202.082712441,-76.4209758626 369.119301183,-76.4209758626 472.144338403,26.604061358" style="stroke:#198903"/>
                  <path id="gv_2B38DD7E_3" d="M470.231073464,28.5173262974 C572.199443636,130.48569647 572.199443636,295.809089429 470.231073464,397.777459602 C368.262703292,499.745829774 202.939310332,499.745829774 100.97094016,397.777459602 C-0.997430012611,295.809089429 -0.997430012611,130.48569647 100.97094016,28.5173262974
C202.939310332,-73.4510438748 368.262703292,-73.4510438748 470.231073464,28.5173262974" style="stroke:#1A8A03"/>
                  <path id="gv_2B38DD7E_4" d="M468.317808524,30.4305912368 C569.229511648,131.342294361 569.229511648,294.952491538 468.317808524,395.864194662 C367.406105401,496.775897786 203.795908223,496.775897786 102.884205099,395.864194662 C1.972501975205,294.952491538 1.972501975205,131.342294361 102.884205099,30.4305912368
C203.795908223,-70.4811118869 367.406105401,-70.4811118869 468.317808524,30.4305912368" style="stroke:#1C8C03"/>
                  <path id="gv_2B38DD7E_5" d="M466.404543585,32.3438561762 C566.25957966,132.198892252 566.25957966,294.095893647 466.404543585,393.950929723 C366.54950751,493.805965798 204.652506114,493.805965798 104.797470038,393.950929723 C4.942433963021,294.095893647 4.942433963021,132.198892252 104.797470038,32.3438561762
C204.652506114,-67.5111798991 366.54950751,-67.5111798991 466.404543585,32.3438561762" style="stroke:#1D8D04"/>
                  <path id="gv_2B38DD7E_6" d="M464.491278646,34.2571211156 C563.289647672,133.055490143 563.289647672,293.239295756 464.491278646,392.037664783 C365.692909619,490.83603381 205.509104005,490.83603381 106.710734978,392.037664783 C7.912365950838,293.239295756 7.912365950838,133.055490143 106.710734978,34.2571211156
C205.509104005,-64.5412479113 365.692909619,-64.5412479113 464.491278646,34.2571211156" style="stroke:#1F8E04"/>
                  <path id="gv_2B38DD7E_7" d="M462.578013706,36.170386055 C560.319715685,133.912088034 560.319715685,292.382697865 462.578013706,390.124399844 C364.836311728,487.866101823 206.365701896,487.866101823 108.623999917,390.124399844 C10.8822979387,292.382697865 10.8822979387,133.912088034 108.623999917,36.170386055
C206.365701896,-61.5713159235 364.836311728,-61.5713159235 462.578013706,36.170386055" style="stroke:#218F04"/>
                  <path id="gv_2B38DD7E_8" d="M460.664748767,38.0836509944 C557.349783697,134.768685925 557.349783697,291.526099974 460.664748767,388.211134905 C363.979713837,484.896169835 207.222299787,484.896169835 110.537264857,388.211134905 C13.8522299265,291.526099974 13.8522299265,134.768685925 110.537264857,38.0836509944
C207.222299787,-58.6013839357 363.979713837,-58.6013839357 460.664748767,38.0836509944" style="stroke:#229004"/>
                  <path id="gv_2B38DD7E_9" d="M458.751483827,39.9969159338 C554.379851709,135.625283816 554.379851709,290.669502084 458.751483827,386.297869965 C363.123115946,481.926237847 208.078897678,481.926237847 112.450529796,386.297869965 C16.8221619143,290.669502084 16.8221619143,135.625283816 112.450529796,39.9969159338
C208.078897678,-55.6314519479 363.123115946,-55.6314519479 458.751483827,39.9969159338" style="stroke:#249205"/>
                  <path id="gv_2B38DD7E_10" d="M456.838218888,41.9101808732 C551.409919721,136.481881706 551.409919721,289.812904193 456.838218888,384.384605026 C362.266518055,478.956305859 208.935495569,478.956305859 114.363794735,384.384605026 C19.7920939021,289.812904193 19.7920939021,136.481881706 114.363794735,41.9101808732
C208.935495569,-52.66151996 362.266518055,-52.66151996 456.838218888,41.9101808732" style="stroke:#259305"/>
                  <path id="gv_2B38DD7E_11" d="M454.924953949,43.8234458126 C548.439987733,137.338479597 548.439987733,288.956306302 454.924953949,382.471340086 C361.409920164,475.986373871 209.79209346,475.986373871 116.277059675,382.471340086 C22.7620258899,288.956306302 22.7620258899,137.338479597 116.277059675,43.8234458126
C209.79209346,-49.6915879722 361.409920164,-49.6915879722 454.924953949,43.8234458126" style="stroke:#279405"/>
                  <path id="gv_2B38DD7E_12" d="M453.011689009,45.736710752 C545.470055746,138.195077488 545.470055746,288.099708411 453.011689009,380.558075147 C360.553322273,473.016441883 210.648691351,473.016441883 118.190324614,380.558075147 C25.7319578777,288.099708411 25.7319578777,138.195077488 118.190324614,45.736710752
C210.648691351,-46.7216559844 360.553322273,-46.7216559844 453.011689009,45.736710752" style="stroke:#289506"/>
                  <path id="gv_2B38DD7E_13" d="M451.09842407,47.6499756914 C542.500123758,139.051675379 542.500123758,287.24311052 451.09842407,378.644810208 C359.696724382,470.046509896 211.505289242,470.046509896 120.103589554,378.644810208 C28.7018898656,287.24311052 28.7018898656,139.051675379 120.103589554,47.6499756914
C211.505289242,-43.7517239966 359.696724382,-43.7517239966 451.09842407,47.6499756914" style="stroke:#2A9606"/>
                  <path id="gv_2B38DD7E_14" d="M449.18515913,49.5632406308 C539.53019177,139.90827327 539.53019177,286.386512629 449.18515913,376.731545268 C358.840126491,467.076577908 212.361887133,467.076577908 122.016854493,376.731545268 C31.6718218534,286.386512629 31.6718218534,139.90827327 122.016854493,49.5632406308
C212.361887133,-40.7817920088 358.840126491,-40.7817920088 449.18515913,49.5632406308" style="stroke:#2C9806"/>
                  <path id="gv_2B38DD7E_15" d="M447.271894191,51.4765055702 C536.560259782,140.764871161 536.560259782,285.529914738 447.271894191,374.818280329 C357.9835286,464.10664592 213.218485024,464.10664592 123.930119432,374.818280329 C34.6417538412,285.529914738 34.6417538412,140.764871161 123.930119432,51.4765055702
C213.218485024,-37.811860021 357.9835286,-37.811860021 447.271894191,51.4765055702" style="stroke:#2D9907"/>
                  <path id="gv_2B38DD7E_16" d="M445.358629252,53.3897705096 C533.590327794,141.621469052 533.590327794,284.673316847 445.358629252,372.905015389 C357.126930709,461.136713932 214.075082915,461.136713932 125.843384372,372.905015389 C37.611685829,284.673316847 37.611685829,141.621469052 125.843384372,53.3897705096
C214.075082915,-34.8419280331 357.126930709,-34.8419280331 445.358629252,53.3897705096" style="stroke:#2F9A07"/>
                  <path id="gv_2B38DD7E_17" d="M443.445364312,55.303035449 C530.620395806,142.478066943 530.620395806,283.816718956 443.445364312,370.99175045 C356.270332818,458.166781944 214.931680806,458.166781944 127.756649311,370.99175045 C40.5816178168,283.816718956 40.5816178168,142.478066943 127.756649311,55.303035449
C214.931680806,-31.8719960453 356.270332818,-31.8719960453 443.445364312,55.303035449" style="stroke:#309B07"/>
                  <path id="gv_2B38DD7E_18" d="M441.532099373,57.2163003884 C527.650463819,143.334664834 527.650463819,282.960121065 441.532099373,369.078485511 C355.413734927,455.196849957 215.788278697,455.196849957 129.669914251,369.078485511 C43.5515498046,282.960121065 43.5515498046,143.334664834 129.669914251,57.2163003884
C215.788278697,-28.9020640575 355.413734927,-28.9020640575 441.532099373,57.2163003884" style="stroke:#329D08"/>
                  <path id="gv_2B38DD7E_19" d="M439.618834433,59.1295653278 C524.680531831,144.191262725 524.680531831,282.103523174 439.618834433,367.165220571 C354.557137036,452.226917969 216.644876587,452.226917969 131.58317919,367.165220571 C46.5214817924,282.103523174 46.5214817924,144.191262725 131.58317919,59.1295653278
C216.644876587,-25.9321320697 354.557137036,-25.9321320697 439.618834433,59.1295653278" style="stroke:#339E08"/>
                  <path id="gv_2B38DD7E_20" d="M437.705569494,61.0428302672 C521.710599843,145.047860616 521.710599843,281.246925283 437.705569494,365.251955632 C353.700539145,449.256985981 217.501474478,449.256985981 133.496444129,365.251955632 C49.4914137803,281.246925283 49.4914137803,145.047860616 133.496444129,61.0428302672
C217.501474478,-22.9622000819 353.700539145,-22.9622000819 437.705569494,61.0428302672" style="stroke:#359F08"/>
                  <path id="gv_2B38DD7E_21" d="M435.792304555,62.9560952066 C518.740667855,145.904458507 518.740667855,280.390327392 435.792304555,363.338690692 C352.843941254,446.287053993 218.358072369,446.287053993 135.409709069,363.338690692 C52.4613457681,280.390327392 52.4613457681,145.904458507 135.409709069,62.9560952066
C218.358072369,-19.9922680941 352.843941254,-19.9922680941 435.792304555,62.9560952066" style="stroke:#37A009"/>
                  <path id="gv_2B38DD7E_22" d="M433.879039615,64.869360146 C515.770735867,146.761056398 515.770735867,279.533729501 433.879039615,361.425425753 C351.987343363,443.317122005 219.21467026,443.317122005 137.322974008,361.425425753 C55.4312777559,279.533729501 55.4312777559,146.761056398 137.322974008,64.869360146
C219.21467026,-17.0223361063 351.987343363,-17.0223361063 433.879039615,64.869360146" style="stroke:#38A109"/>
                  <path id="gv_2B38DD7E_23" d="M431.965774676,66.7826250854 C512.80080388,147.617654289 512.80080388,278.67713161 431.965774676,359.512160814 C351.130745472,440.347190017 220.071268151,440.347190017 139.236238948,359.512160814 C58.4012097437,278.67713161 58.4012097437,147.617654289 139.236238948,66.7826250854
C220.071268151,-14.0524041184 351.130745472,-14.0524041184 431.965774676,66.7826250854" style="stroke:#3AA309"/>
                  <path id="gv_2B38DD7E_24" d="M430.052509736,68.6958900248 C509.830871892,148.47425218 509.830871892,277.820533719 430.052509736,357.598895874 C350.274147581,437.37725803 220.927866042,437.37725803 141.149503887,357.598895874 C61.3711417315,277.820533719 61.3711417315,148.47425218 141.149503887,68.6958900248
C220.927866042,-11.0824721306 350.274147581,-11.0824721306 430.052509736,68.6958900248" style="stroke:#3BA40A"/>
                  <path id="gv_2B38DD7E_25" d="M428.139244797,70.6091549642 C506.860939904,149.330850071 506.860939904,276.963935828 428.139244797,355.685630935 C349.41754969,434.407326042 221.784463933,434.407326042 143.062768826,355.685630935 C64.3410737193,276.963935828 64.3410737193,149.330850071 143.062768826,70.6091549642
C221.784463933,-8.112540142801 349.41754969,-8.112540142801 428.139244797,70.6091549642" style="stroke:#3DA50A"/>
                  <path id="gv_2B38DD7E_26" d="M426.225979858,72.5224199036 C503.891007916,150.187447962 503.891007916,276.107337937 426.225979858,353.772365995 C348.560951799,431.437394054 222.641061824,431.437394054 144.976033766,353.772365995 C67.3110057072,276.107337937 67.3110057072,150.187447962 144.976033766,72.5224199036
C222.641061824,-5.142608154985 348.560951799,-5.142608154985 426.225979858,72.5224199036" style="stroke:#3EA60A"/>
                  <path id="gv_2B38DD7E_27" d="M424.312714918,74.435684843 C500.921075928,151.044045853 500.921075928,275.250740046 424.312714918,351.859101056 C347.704353908,428.467462066 223.497659715,428.467462066 146.889298705,351.859101056 C70.280937695,275.250740046 70.280937695,151.044045853 146.889298705,74.435684843
C223.497659715,-2.172676167169 347.704353908,-2.172676167169 424.312714918,74.435684843" style="stroke:#40A70A"/>
                  <path id="gv_2B38DD7E_28" d="M422.399449979,76.3489497824 C497.951143941,151.900643744 497.951143941,274.394142155 422.399449979,349.945836117 C346.847756017,425.497530078 224.354257606,425.497530078 148.802563645,349.945836117 C73.2508696828,274.394142155 73.2508696828,151.900643744 148.802563645,76.3489497824
C224.354257606,0.797255820647 346.847756017,0.797255820647 422.399449979,76.3489497824" style="stroke:#42A90B"/>
                  <path id="gv_2B38DD7E_29" d="M420.486185039,78.2622147218 C494.981211953,152.757241635 494.981211953,273.537544264 420.486185039,348.032571177 C345.991158126,422.527598091 225.210855497,422.527598091 150.715828584,348.032571177 C76.2208016706,273.537544264 76.2208016706,152.757241635 150.715828584,78.2622147218
C225.210855497,3.767187808464 345.991158126,3.767187808463 420.486185039,78.2622147218" style="stroke:#43AA0B"/>
                  <path id="gv_2B38DD7E_30" d="M418.5729201,80.1754796612 C492.011279965,153.613839526 492.011279965,272.680946373 418.5729201,346.119306238 C345.134560235,419.557666103 226.067453388,419.557666103 152.629093523,346.119306238 C79.1907336584,272.680946373 79.1907336584,153.613839526 152.629093523,80.1754796612
C226.067453388,6.73711979628 345.134560235,6.73711979628 418.5729201,80.1754796612" style="stroke:#45AB0B"/>
                  <path id="gv_2B38DD7E_31" d="M416.659655161,82.0887446006 C489.041347977,154.470437417 489.041347977,271.824348482 416.659655161,344.206041298 C344.277962344,416.587734115 226.924051279,416.587734115 154.542358463,344.206041298 C82.1606656462,271.824348482 82.1606656462,154.470437417 154.542358463,82.0887446006
C226.924051279,9.707051784096 344.277962344,9.707051784096 416.659655161,82.0887446006" style="stroke:#46AC0C"/>
                  <path id="gv_2B38DD7E_32" d="M414.746390221,84.00200954 C486.071415989,155.327035308 486.071415989,270.967750591 414.746390221,342.292776359 C343.421364453,413.617802127 227.78064917,413.617802127 156.455623402,342.292776359 C85.1305976341,270.967750591 85.1305976341,155.327035308 156.455623402,84.00200954
C227.78064917,12.6769837719 343.421364453,12.6769837719 414.746390221,84.00200954" style="stroke:#48AE0C"/>
                  <path id="gv_2B38DD7E_33" d="M412.833125282,85.9152744794 C483.101484001,156.183633199 483.101484001,270.1111527 412.833125282,340.37951142 C342.564766562,410.647870139 228.637247061,410.647870139 158.368888342,340.37951142 C88.1005296219,270.1111527 88.1005296219,156.183633199 158.368888342,85.9152744794
C228.637247061,15.6469157597 342.564766562,15.6469157597 412.833125282,85.9152744794" style="stroke:#49AF0C"/>
                  <path id="gv_2B38DD7E_34" d="M410.919860342,87.8285394188 C480.131552014,157.04023109 480.131552014,269.254554809 410.919860342,338.46624648 C341.708168671,407.677938151 229.493844952,407.677938151 160.282153281,338.46624648 C91.0704616097,269.254554809 91.0704616097,157.04023109 160.282153281,87.8285394188
C229.493844952,18.6168477475 341.708168671,18.6168477475 410.919860342,87.8285394188" style="stroke:#4BB00D"/>
                  <path id="gv_2B38DD7E_35" d="M409.006595403,89.7418043582 C477.161620026,157.896828981 477.161620026,268.397956918 409.006595403,336.552981541 C340.85157078,404.708006164 230.350442843,404.708006164 162.19541822,336.552981541 C94.0403935975,268.397956918 94.0403935975,157.896828981 162.19541822,89.7418043582
C230.350442843,21.5867797354 340.85157078,21.5867797354 409.006595403,89.7418043582" style="stroke:#4DB10D"/>
                  <path id="gv_2B38DD7E_36" d="M407.093330464,91.6550692976 C474.191688038,158.753426872 474.191688038,267.541359027 407.093330464,334.639716601 C339.994972889,401.738074176 231.207040734,401.738074176 164.10868316,334.639716601 C97.0103255853,267.541359027 97.0103255853,158.753426872 164.10868316,91.6550692976
C231.207040734,24.5567117232 339.994972889,24.5567117232 407.093330464,91.6550692976" style="stroke:#4EB20D"/>
                  <path id="gv_2B38DD7E_37" d="M405.180065524,93.568334237 C471.22175605,159.610024763 471.22175605,266.684761136 405.180065524,332.726451662 C339.138374998,398.768142188 232.063638625,398.768142188 166.021948099,332.726451662 C99.9802575731,266.684761136 99.9802575731,159.610024763 166.021948099,93.568334237
C232.063638625,27.526643711 339.138374998,27.526643711 405.180065524,93.568334237" style="stroke:#50B40E"/>
                  <path id="gv_2B38DD7E_38" d="M403.266800585,95.4815991764 C468.251824062,160.466622654 468.251824062,265.828163245 403.266800585,330.813186723 C338.281777107,395.7982102 232.920236516,395.7982102 167.935213039,330.813186723 C102.950189561,265.828163245 102.950189561,160.466622654 167.935213039,95.4815991764
C232.920236516,30.4965756988 338.281777107,30.4965756988 403.266800585,95.4815991764" style="stroke:#51B50E"/>
                  <path id="gv_2B38DD7E_39" d="M401.353535645,97.3948641158 C465.281892075,161.323220545 465.281892075,264.971565354 401.353535645,328.899921783 C337.425179216,392.828278212 233.776834407,392.828278212 169.848477978,328.899921783 C105.920121549,264.971565354 105.920121549,161.323220545 169.848477978,97.3948641158
C233.776834407,33.4665076866 337.425179216,33.4665076866 401.353535645,97.3948641158" style="stroke:#53B60E"/>
                  <path id="gv_2B38DD7E_40" d="M399.440270706,99.3081290552 C462.311960087,162.179818436 462.311960087,264.114967463 399.440270706,326.986656844 C336.568581325,389.858346225 234.633432298,389.858346225 171.761742917,326.986656844 C108.890053537,264.114967463 108.890053537,162.179818436 171.761742917,99.3081290552
C234.633432298,36.4364396744 336.568581325,36.4364396744 399.440270706,99.3081290552" style="stroke:#54B70F"/>
                  <path id="gv_2B38DD7E_41" d="M397.527005767,101.221393995 C459.342028099,163.036416327 459.342028099,263.258369572 397.527005767,325.073391904 C335.711983434,386.888414237 235.490030189,386.888414237 173.675007857,325.073391904 C111.859985524,263.258369572 111.859985524,163.036416327 173.675007857,101.221393995
C235.490030189,39.4063716623 335.711983434,39.4063716623 397.527005767,101.221393995" style="stroke:#56B80F"/>
                  <path id="gv_2B38DD7E_42" d="M395.613740827,103.134658934 C456.372096111,163.893014218 456.372096111,262.401771681 395.613740827,323.160126965 C334.855385543,383.918482249 236.34662808,383.918482249 175.588272796,323.160126965 C114.829917512,262.401771681 114.829917512,163.893014218 175.588272796,103.134658934
C236.34662808,42.3763036501 334.855385543,42.3763036501 395.613740827,103.134658934" style="stroke:#57BA0F"/>
                  <path id="gv_2B38DD7E_43" d="M393.700475888,105.047923873 C453.402164123,164.749612109 453.402164123,261.54517379 393.700475888,321.246862026 C333.998787652,380.948550261 237.203225971,380.948550261 177.501537736,321.246862026 C117.7998495,261.54517379 117.7998495,164.749612109 177.501537736,105.047923873
C237.203225971,45.3462356379 333.998787652,45.3462356379 393.700475888,105.047923873" style="stroke:#59BB10"/>
                  <path id="gv_2B38DD7E_44" d="M391.787210948,106.961188813 C450.432232135,165.60621 450.432232135,260.688575899 391.787210948,319.333597086 C333.142189761,377.978618273 238.059823862,377.978618273 179.414802675,319.333597086 C120.769781488,260.688575899 120.769781488,165.60621 179.414802675,106.961188813
C238.059823862,48.3161676257 333.142189761,48.3161676257 391.787210948,106.961188813" style="stroke:#5BBC10"/>
                  <path id="gv_2B38DD7E_45" d="M389.873946009,108.874453752 C447.462300148,166.462807891 447.462300148,259.831978008 389.873946009,317.420332147 C332.28559187,375.008686285 238.916421753,375.008686285 181.328067614,317.420332147 C123.739713476,259.831978008 123.739713476,166.462807891 181.328067614,108.874453752
C238.916421753,51.2860996135 332.28559187,51.2860996135 389.873946009,108.874453752" style="stroke:#5CBD10"/>
                  <path id="gv_2B38DD7E_46" d="M387.96068107,110.787718692 C444.49236816,167.319405782 444.49236816,258.975380117 387.96068107,315.507067207 C331.428993979,372.038754298 239.773019644,372.038754298 183.241332554,315.507067207 C126.709645463,258.975380117 126.709645463,167.319405782 183.241332554,110.787718692
C239.773019644,54.2560316013 331.428993979,54.2560316013 387.96068107,110.787718692" style="stroke:#5EBF10"/>
                  <path id="gv_2B38DD7E_47" d="M386.04741613,112.700983631 C441.522436172,168.176003673 441.522436172,258.118782226 386.04741613,313.593802268 C330.572396088,369.06882231 240.629617535,369.06882231 185.154597493,313.593802268 C129.679577451,258.118782226 129.679577451,168.176003673 185.154597493,112.700983631
C240.629617535,57.2259635892 330.572396088,57.2259635892 386.04741613,112.700983631" style="stroke:#5FC011"/>
                  <path id="gv_2B38DD7E_48" d="M384.134151191,114.61424857 C438.552504184,169.032601564 438.552504184,257.262184335 384.134151191,311.680537329 C329.715798197,366.098890322 241.486215426,366.098890322 187.067862433,311.680537329 C132.649509439,257.262184335 132.649509439,169.032601564 187.067862433,114.61424857
C241.486215426,60.195895577 329.715798197,60.195895577 384.134151191,114.61424857" style="stroke:#61C111"/>
                  <path id="gv_2B38DD7E_49" d="M382.220886251,116.52751351 C435.582572196,169.889199455 435.582572196,256.405586444 382.220886251,309.767272389 C328.859200306,363.128958334 242.342813317,363.128958334 188.981127372,309.767272389 C135.619441427,256.405586444 135.619441427,169.889199455 188.981127372,116.52751351
C242.342813317,63.1658275648 328.859200306,63.1658275648 382.220886251,116.52751351" style="stroke:#62C211"/>
                  <path id="gv_2B38DD7E_50" d="M380.307621312,118.440778449 C432.612640209,170.745797346 432.612640209,255.548988553 380.307621312,307.85400745 C328.002602415,360.159026346 243.199411208,360.159026346 190.894392311,307.85400745 C138.589373415,255.548988553 138.589373415,170.745797346 190.894392311,118.440778449
C243.199411208,66.1357595526 328.002602415,66.1357595526 380.307621312,118.440778449" style="stroke:#64C312"/>
                  <path id="gv_2B38DD7E_51" d="M378.394356373,120.354043389 C429.642708221,171.602395237 429.642708221,254.692390662 378.394356373,305.94074251 C327.146004524,357.189094359 244.056009099,357.189094359 192.807657251,305.94074251 C141.559305403,254.692390662 141.559305403,171.602395237 192.807657251,120.354043389
C244.056009099,69.1056915404 327.146004524,69.1056915404 378.394356373,120.354043389" style="stroke:#66C512"/>
                  <path id="gv_2B38DD7E_52" d="M376.481091433,122.267308328 C426.672776233,172.458993128 426.672776233,253.835792771 376.481091433,304.027477571 C326.289406633,354.219162371 244.91260699,354.219162371 194.72092219,304.027477571 C144.52923739,253.835792771 144.52923739,172.458993128 194.72092219,122.267308328
C244.91260699,72.0756235282 326.289406633,72.0756235282 376.481091433,122.267308328" style="stroke:#67C612"/>
                  <path id="gv_2B38DD7E_53" d="M374.567826494,124.180573267 C423.702844245,173.315591019 423.702844245,252.97919488 374.567826494,302.114212632 C325.432808742,351.249230383 245.769204881,351.249230383 196.63418713,302.114212632 C147.499169378,252.97919488 147.499169378,173.315591019 196.63418713,124.180573267
C245.769204881,75.0455555161 325.432808742,75.0455555161 374.567826494,124.180573267" style="stroke:#69C713"/>
                  <path id="gv_2B38DD7E_54" d="M372.654561554,126.093838207 C420.732912257,174.17218891 420.732912257,252.122596989 372.654561554,300.200947692 C324.576210851,348.279298395 246.625802772,348.279298395 198.547452069,300.200947692 C150.469101366,252.122596989 150.469101366,174.17218891 198.547452069,126.093838207
C246.625802772,78.0154875039 324.576210851,78.0154875039 372.654561554,126.093838207" style="stroke:#6AC813"/>
                  <path id="gv_2B38DD7E_55" d="M370.741296615,128.007103146 C417.762980269,175.028786801 417.762980269,251.265999098 370.741296615,298.287682753 C323.71961296,345.309366407 247.482400663,345.309366407 200.460717008,298.287682753 C153.439033354,251.265999098 153.439033354,175.028786801 200.460717008,128.007103146
C247.482400663,80.9854194917 323.71961296,80.9854194917 370.741296615,128.007103146" style="stroke:#6CCA13"/>
                  <path id="gv_2B38DD7E_56" d="M368.828031676,129.920368086 C414.793048282,175.885384692 414.793048282,250.409401207 368.828031676,296.374417813 C322.863015069,342.33943442 248.338998554,342.33943442 202.373981948,296.374417813 C156.408965342,250.409401207 156.408965342,175.885384692 202.373981948,129.920368086
C248.338998554,83.9553514795 322.863015069,83.9553514795 368.828031676,129.920368086" style="stroke:#6DCB14"/>
                  <path id="gv_2B38DD7E_57" d="M366.914766736,131.833633025 C411.823116294,176.741982583 411.823116294,249.552803316 366.914766736,294.461152874 C322.006417178,339.369502432 249.195596445,339.369502432 204.287246887,294.461152874 C159.378897329,249.552803316 159.378897329,176.741982583 204.287246887,131.833633025
C249.195596445,86.9252834673 322.006417178,86.9252834673 366.914766736,131.833633025" style="stroke:#6FCC14"/>
                  <path id="gv_2B38DD7E_58" d="M365.001501797,133.746897964 C408.853184306,177.598580474 408.853184306,248.696205425 365.001501797,292.547887935 C321.149819287,336.399570444 250.052194336,336.399570444 206.200511827,292.547887935 C162.348829317,248.696205425 162.348829317,177.598580474 206.200511827,133.746897964
C250.052194336,89.8952154551 321.149819287,89.8952154551 365.001501797,133.746897964" style="stroke:#71CD14"/>
                  <path id="gv_2B38DD7E_59" d="M363.088236857,135.660162904 C405.883252318,178.455178365 405.883252318,247.839607534 363.088236857,290.634622995 C320.293221396,333.429638456 250.908792227,333.429638456 208.113776766,290.634622995 C165.318761305,247.839607534 165.318761305,178.455178365 208.113776766,135.660162904
C250.908792227,92.865147443 320.293221396,92.865147443 363.088236857,135.660162904" style="stroke:#72CE15"/>
                  <path id="gv_2B38DD7E_60" d="M361.174971918,137.573427843 C402.91332033,179.311776256 402.91332033,246.983009643 361.174971918,288.721358056 C319.436623505,330.459706468 251.765390118,330.459706468 210.027041705,288.721358056 C168.288693293,246.983009643 168.288693293,179.311776256 210.027041705,137.573427843
C251.765390118,95.8350794308 319.436623505,95.8350794308 361.174971918,137.573427843" style="stroke:#74D015"/>
                  <path id="gv_2B38DD7E_61" d="M359.261706979,139.486692783 C399.943388343,180.168374147 399.943388343,246.126411752 359.261706979,286.808093116 C318.580025615,327.48977448 252.621988009,327.48977448 211.940306645,286.808093116 C171.258625281,246.126411752 171.258625281,180.168374147 211.940306645,139.486692783
C252.621988009,98.8050114186 318.580025615,98.8050114186 359.261706979,139.486692783" style="stroke:#75D115"/>
                  <path id="gv_2B38DD7E_62" d="M357.348442039,141.399957722 C396.973456355,181.024972038 396.973456355,245.269813861 357.348442039,284.894828177 C317.723427724,324.519842493 253.4785859,324.519842493 213.853571584,284.894828177 C174.228557269,245.269813861 174.228557269,181.024972038 213.853571584,141.399957722
C253.4785859,101.774943406 317.723427724,101.774943406 357.348442039,141.399957722" style="stroke:#77D216"/>
                  <path id="gv_2B38DD7E_63" d="M355.4351771,143.313222661 C394.003524367,181.881569929 394.003524367,244.41321597 355.4351771,282.981563238 C316.866829833,321.549910505 254.335183791,321.549910505 215.766836524,282.981563238 C177.198489256,244.41321597 177.198489256,181.881569929 215.766836524,143.313222661
C254.335183791,104.744875394 316.866829833,104.744875394 355.4351771,143.313222661" style="stroke:#78D316"/>
                  <path id="gv_2B38DD7E_64" d="M353.52191216,145.226487601 C391.033592379,182.73816782 391.033592379,243.556618079 353.52191216,281.068298298 C316.010231942,318.579978517 255.191781682,318.579978517 217.680101463,281.068298298 C180.168421244,243.556618079 180.168421244,182.73816782 217.680101463,145.226487601
C255.191781682,107.714807382 316.010231942,107.714807382 353.52191216,145.226487601" style="stroke:#7AD416"/>
                  <path id="gv_2B38DD7E_65" d="M351.608647221,147.13975254 C388.063660391,183.594765711 388.063660391,242.700020188 351.608647221,279.155033359 C315.153634051,315.610046529 256.048379573,315.610046529 219.593366402,279.155033359 C183.138353232,242.700020188 183.138353232,183.594765711 219.593366402,147.13975254
C256.048379573,110.68473937 315.153634051,110.68473937 351.608647221,147.13975254" style="stroke:#7CD616"/>
                  <path id="gv_2B38DD7E_66" d="M349.695382282,149.05301748 C385.093728403,184.451363602 385.093728403,241.843422297 349.695382282,277.241768419 C314.29703616,312.640114541 256.904977464,312.640114541 221.506631342,277.241768419 C186.10828522,241.843422297 186.10828522,184.451363602 221.506631342,149.05301748
C256.904977464,113.654671358 314.29703616,113.654671358 349.695382282,149.05301748" style="stroke:#7DD717"/>
                  <path id="gv_2B38DD7E_67" d="M347.782117342,150.966282419 C382.123796416,185.307961493 382.123796416,240.986824406 347.782117342,275.32850348 C313.440438269,309.670182554 257.761575355,309.670182554 223.419896281,275.32850348 C189.078217208,240.986824406 189.078217208,185.307961493 223.419896281,150.966282419
C257.761575355,116.624603345 313.440438269,116.624603345 347.782117342,150.966282419" style="stroke:#7FD817"/>
                  <path id="gv_2B38DD7E_68" d="M345.868852403,152.879547358 C379.153864428,186.164559384 379.153864428,240.130226515 345.868852403,273.415238541 C312.583840378,306.700250566 258.618173246,306.700250566 225.333161221,273.415238541 C192.048149195,240.130226515 192.048149195,186.164559384 225.333161221,152.879547358
C258.618173246,119.594535333 312.583840378,119.594535333 345.868852403,152.879547358" style="stroke:#80D917"/>
                  <path id="gv_2B38DD7E_69" d="M343.955587463,154.792812298 C376.18393244,187.021157275 376.18393244,239.273628625 343.955587463,271.501973601 C311.727242487,303.730318578 259.474771137,303.730318578 227.24642616,271.501973601 C195.018081183,239.273628625 195.018081183,187.021157275 227.24642616,154.792812298
C259.474771137,122.564467321 311.727242487,122.564467321 343.955587463,154.792812298" style="stroke:#82DB18"/>
                  <path id="gv_2B38DD7E_70" d="M342.042322524,156.706077237 C373.214000452,187.877755165 373.214000452,238.417030734 342.042322524,269.588708662 C310.870644596,300.76038659 260.331369028,300.76038659 229.159691099,269.588708662 C197.988013171,238.417030734 197.988013171,187.877755165 229.159691099,156.706077237
C260.331369028,125.534399309 310.870644596,125.534399309 342.042322524,156.706077237" style="stroke:#83DC18"/>
                  <path id="gv_2B38DD7E_71" d="M340.129057585,158.619342177 C370.244068464,188.734353056 370.244068464,237.560432843 340.129057585,267.675443722 C310.014046705,297.790454602 261.187966919,297.790454602 231.072956039,267.675443722 C200.957945159,237.560432843 200.957945159,188.734353056 231.072956039,158.619342177
C261.187966919,128.504331297 310.014046705,128.504331297 340.129057585,158.619342177" style="stroke:#85DD18"/>
                  <path id="gv_2B38DD7E_72" d="M338.215792645,160.532607116 C367.274136477,189.590950947 367.274136477,236.703834952 338.215792645,265.762178783 C309.157448814,294.820522614 262.04456481,294.820522614 232.986220978,265.762178783 C203.927877147,236.703834952 203.927877147,189.590950947 232.986220978,160.532607116
C262.04456481,131.474263285 309.157448814,131.474263285 338.215792645,160.532607116" style="stroke:#87DE19"/>
                  <path id="gv_2B38DD7E_73" d="M336.302527706,162.445872055 C364.304204489,190.447548838 364.304204489,235.847237061 336.302527706,263.848913844 C308.300850923,291.850590627 262.901162701,291.850590627 234.899485918,263.848913844 C206.897809135,235.847237061 206.897809135,190.447548838 234.899485918,162.445872055
C262.901162701,134.444195272 308.300850923,134.444195272 336.302527706,162.445872055" style="stroke:#88DF19"/>
                  <path id="gv_2B38DD7E_74" d="M334.389262766,164.359136995 C361.334272501,191.304146729 361.334272501,234.99063917 334.389262766,261.935648904 C307.444253032,288.880658639 263.757760592,288.880658639 236.812750857,261.935648904 C209.867741122,234.99063917 209.867741122,191.304146729 236.812750857,164.359136995
C263.757760592,137.41412726 307.444253032,137.41412726 334.389262766,164.359136995" style="stroke:#8AE119"/>
                  <path id="gv_2B38DD7E_75" d="M332.475997827,166.272401934 C358.364340513,192.16074462 358.364340513,234.134041279 332.475997827,260.022383965 C306.587655141,285.910726651 264.614358483,285.910726651 238.726015796,260.022383965 C212.83767311,234.134041279 212.83767311,192.16074462 238.726015796,166.272401934
C264.614358483,140.384059248 306.587655141,140.384059248 332.475997827,166.272401934" style="stroke:#8BE21A"/>
                  <path id="gv_2B38DD7E_76" d="M330.562732888,168.185666874 C355.394408525,193.017342511 355.394408525,233.277443388 330.562732888,258.109119025 C305.73105725,282.940794663 265.470956374,282.940794663 240.639280736,258.109119025 C215.807605098,233.277443388 215.807605098,193.017342511 240.639280736,168.185666874
C265.470956374,143.353991236 305.73105725,143.353991236 330.562732888,168.185666874" style="stroke:#8DE31A"/>
                  <path id="gv_2B38DD7E_77" d="M328.649467948,170.098931813 C352.424476538,193.873940402 352.424476538,232.420845497 328.649467948,256.195854086 C304.874459359,279.970862675 266.327554265,279.970862675 242.552545675,256.195854086 C218.777537086,232.420845497 218.777537086,193.873940402 242.552545675,170.098931813
C266.327554265,146.323923224 304.874459359,146.323923224 328.649467948,170.098931813" style="stroke:#8EE41A"/>
                  <path id="gv_2B38DD7E_78" d="M326.736203009,172.012196752 C349.45454455,194.730538293 349.45454455,231.564247606 326.736203009,254.282589147 C304.017861468,277.000930688 267.184152156,277.000930688 244.465810615,254.282589147 C221.747469074,231.564247606 221.747469074,194.730538293 244.465810615,172.012196752
C267.184152156,149.293855211 304.017861468,149.293855211 326.736203009,172.012196752" style="stroke:#90E51B"/>
                  <path id="gv_2B38DD7E_79" d="M324.822938069,173.925461692 C346.484612562,195.587136184 346.484612562,230.707649715 324.822938069,252.369324207 C303.161263577,274.0309987 268.040750046,274.0309987 246.379075554,252.369324207 C224.717401061,230.707649715 224.717401061,195.587136184 246.379075554,173.925461692
C268.040750046,152.263787199 303.161263577,152.263787199 324.822938069,173.925461692" style="stroke:#91E71B"/>
                  <path id="gv_2B38DD7E_80" d="M322.90967313,175.838726631 C343.514680574,196.443734075 343.514680574,229.851051824 322.90967313,250.456059268 C302.304665686,271.061066712 268.897347937,271.061066712 248.292340493,250.456059268 C227.687333049,229.851051824 227.687333049,196.443734075 248.292340493,175.838726631
C268.897347937,155.233719187 302.304665686,155.233719187 322.90967313,175.838726631" style="stroke:#93E81B"/>
                  <path id="gv_2B38DD7E_81" d="M320.996408191,177.751991571 C340.544748586,197.300331966 340.544748586,228.994453933 320.996408191,248.542794328 C301.448067795,268.091134724 269.753945828,268.091134724 250.205605433,248.542794328 C230.657265037,228.994453933 230.657265037,197.300331966 250.205605433,177.751991571
C269.753945828,158.203651175 301.448067795,158.203651175 320.996408191,177.751991571" style="stroke:#95E91C"/>
                  <path id="gv_2B38DD7E_82" d="M319.083143251,179.66525651 C337.574816598,198.156929857 337.574816598,228.137856042 319.083143251,246.629529389 C300.591469904,265.121202736 270.610543719,265.121202736 252.118870372,246.629529389 C233.627197025,228.137856042 233.627197025,198.156929857 252.118870372,179.66525651
C270.610543719,161.173583163 300.591469904,161.173583163 319.083143251,179.66525651" style="stroke:#96EA1C"/>
                  <path id="gv_2B38DD7E_83" d="M317.169878312,181.578521449 C334.604884611,199.013527748 334.604884611,227.281258151 317.169878312,244.71626445 C299.734872013,262.151270748 271.46714161,262.151270748 254.032135312,244.71626445 C236.597129013,227.281258151 236.597129013,199.013527748 254.032135312,181.578521449
C271.46714161,164.143515151 299.734872013,164.143515151 317.169878312,181.578521449" style="stroke:#98EC1C"/>
                  <path id="gv_2B38DD7E_84" d="M315.256613372,183.491786389 C331.634952623,199.870125639 331.634952623,226.42466026 315.256613372,242.80299951 C298.878274122,259.181338761 272.323739501,259.181338761 255.945400251,242.80299951 C239.567061001,226.42466026 239.567061001,199.870125639 255.945400251,183.491786389
C272.323739501,167.113447138 298.878274122,167.113447138 315.256613372,183.491786389" style="stroke:#99ED1C"/>
                  <path id="gv_2B38DD7E_85" d="M313.343348433,185.405051328 C328.665020635,200.72672353 328.665020635,225.568062369 313.343348433,240.889734571 C298.021676231,256.211406773 273.180337392,256.211406773 257.85866519,240.889734571 C242.536992988,225.568062369 242.536992988,200.72672353 257.85866519,185.405051328
C273.180337392,170.083379126 298.021676231,170.083379126 313.343348433,185.405051328" style="stroke:#9BEE1D"/>
                  <path id="gv_2B38DD7E_86" d="M311.430083494,187.318316268 C325.695088647,201.583321421 325.695088647,224.711464478 311.430083494,238.976469631 C297.16507834,253.241474785 274.036935283,253.241474785 259.77193013,238.976469631 C245.506924976,224.711464478 245.506924976,201.583321421 259.77193013,187.318316268
C274.036935283,173.053311114 297.16507834,173.053311114 311.430083494,187.318316268" style="stroke:#9CEF1D"/>
                  <path id="gv_2B38DD7E_87" d="M309.516818554,189.231581207 C322.725156659,202.439919312 322.725156659,223.854866587 309.516818554,237.063204692 C296.308480449,250.271542797 274.893533174,250.271542797 261.685195069,237.063204692 C248.476856964,223.854866587 248.476856964,202.439919312 261.685195069,189.231581207
C274.893533174,176.023243102 296.308480449,176.023243102 309.516818554,189.231581207" style="stroke:#9EF01D"/>
                  <path id="gv_2B38DD7E_88" d="M307.603553615,191.144846146 C319.755224672,203.296517203 319.755224672,222.998268696 307.603553615,235.149939753 C295.451882558,247.301610809 275.750131065,247.301610809 263.598460009,235.149939753 C251.446788952,222.998268696 251.446788952,203.296517203 263.598460009,191.144846146
C275.750131065,178.99317509 295.451882558,178.99317509 307.603553615,191.144846146" style="stroke:#A0F21E"/>
                  <path id="gv_2B38DD7E_89" d="M305.690288675,193.058111086 C316.785292684,204.153115094 316.785292684,222.141670805 305.690288675,233.236674813 C294.595284667,244.331678822 276.606728956,244.331678822 265.511724948,233.236674813 C254.41672094,222.141670805 254.41672094,204.153115094 265.511724948,193.058111086
C276.606728956,181.963107077 294.595284667,181.963107077 305.690288675,193.058111086" style="stroke:#A1F31E"/>
                  <path id="gv_2B38DD7E_90" d="M303.777023736,194.971376025 C313.815360696,205.009712985 313.815360696,221.285072914 303.777023736,231.323409874 C293.738686776,241.361746834 277.463326847,241.361746834 267.424989887,231.323409874 C257.386652927,221.285072914 257.386652927,205.009712985 267.424989887,194.971376025
C277.463326847,184.933039065 293.738686776,184.933039065 303.777023736,194.971376025" style="stroke:#A3F41E"/>
                  <path id="gv_2B38DD7E_91" d="M301.863758797,196.884640965 C310.845428708,205.866310876 310.845428708,220.428475023 301.863758797,229.410144934 C292.882088885,238.391814846 278.319924738,238.391814846 269.338254827,229.410144934 C260.356584915,220.428475023 260.356584915,205.866310876 269.338254827,196.884640965
C278.319924738,187.902971053 292.882088885,187.902971053 301.863758797,196.884640965" style="stroke:#A4F51F"/>
                  <path id="gv_2B38DD7E_92" d="M299.950493857,198.797905904 C307.87549672,206.722908767 307.87549672,219.571877132 299.950493857,227.496879995 C292.025490994,235.421882858 279.176522629,235.421882858 271.251519766,227.496879995 C263.326516903,219.571877132 263.326516903,206.722908767 271.251519766,198.797905904
C279.176522629,190.872903041 292.025490994,190.872903041 299.950493857,198.797905904" style="stroke:#A6F61F"/>
                  <path id="gv_2B38DD7E_93" d="M298.037228918,200.711170843 C304.905564732,207.579506658 304.905564732,218.715279241 298.037228918,225.583615056 C291.168893103,232.45195087 280.03312052,232.45195087 273.164784706,225.583615056 C266.296448891,218.715279241 266.296448891,207.579506658 273.164784706,200.711170843
C280.03312052,193.842835029 291.168893103,193.842835029 298.037228918,200.711170843" style="stroke:#A7F81F"/>
                  <path id="gv_2B38DD7E_94" d="M296.123963978,202.624435783 C301.935632745,208.436104549 301.935632745,217.85868135 296.123963978,223.670350116 C290.312295212,229.482018882 280.889718411,229.482018882 275.078049645,223.670350116 C269.266380879,217.85868135 269.266380879,208.436104549 275.078049645,202.624435783
C280.889718411,196.812767017 290.312295212,196.812767017 296.123963978,202.624435783" style="stroke:#A9F920"/>
                  <path id="gv_2B38DD7E_95" d="M294.210699039,204.537700722 C298.965700757,209.29270244 298.965700757,217.002083459 294.210699039,221.757085177 C289.455697321,226.512086895 281.746316302,226.512086895 276.991314584,221.757085177 C272.236312866,217.002083459 272.236312866,209.29270244 276.991314584,204.537700722
C281.746316302,199.782699004 289.455697321,199.782699004 294.210699039,204.537700722" style="stroke:#ABFA20"/>
                  <path id="gv_2B38DD7E_96" d="M292.2974341,206.450965662 C295.995768769,210.149300331 295.995768769,216.145485568 292.2974341,219.843820237 C288.59909943,223.542154907 282.602914193,223.542154907 278.904579524,219.843820237 C275.206244854,216.145485568 275.206244854,210.149300331 278.904579524,206.450965662
C282.602914193,202.752630992 288.59909943,202.752630992 292.2974341,206.450965662" style="stroke:#ACFB20"/>
                  <path id="gv_2B38DD7E_97" d="M290.38416916,208.364230601 C293.025836781,211.005898222 293.025836781,215.288887677 290.38416916,217.930555298 C287.742501539,220.572222919 283.459512084,220.572222919 280.817844463,217.930555298 C278.176176842,215.288887677 278.176176842,211.005898222 280.817844463,208.364230601
C283.459512084,205.72256298 287.742501539,205.72256298 290.38416916,208.364230601" style="stroke:#AEFD21"/>
                  <path id="gv_2B38DD7E_98" d="M288.470904221,210.27749554 C290.055904793,211.862496113 290.055904793,214.432289786 288.470904221,216.017290359 C286.885903648,217.602290931 284.316109975,217.602290931 282.731109403,216.017290359 C281.14610883,214.432289786 281.14610883,211.862496113 282.731109403,210.27749554
C284.316109975,208.692494968 286.885903648,208.692494968 288.470904221,210.27749554" style="stroke:#B1FF21"/>
                  <path id="gv_2B38DD7E_99" d="M286.557639281,212.19076048 C287.085972806,212.719094004 287.085972806,213.575691895 286.557639281,214.104025419 C286.029305757,214.632358943 285.172707866,214.632358943 284.644374342,214.104025419 C284.116040818,213.575691895 284.116040818,212.719094004 284.644374342,212.19076048
C285.172707866,211.662426956 286.029305757,211.662426956 286.557639281,212.19076048" style="stroke:#B1FF21"/>
               </g>
            </g>
            <path
                style="fill:none;stroke:none"
                id="2B38DD7E"
                d="M63.0111851676,357.597447137 C91.2029351538,417.248945931 147.705274815,459.234395785 231.572524757,461.943523411 C245.618976757,463.899202199 289.44095201,452.901116888 303.47107645,452.903044448 C334.325571699,459.494238311 362.359110659,446.018256877 375.856726109,441.421330779
C534.49385758,368.095939365 477.973478233,80.4071196732 312.639855259,29.0042113194 C291.678080884,23.0495511407 270.031463657,20.5645461031 248.63962061,19.2880295362 C214.581775361,18.5356665571 181.793949671,26.8455080218 152.527407847,39.9865870228
C129.639676889,50.4367164144 111.602637074,67.2827741528 96.7345308811,85.8482486261 C37.3267587076,175.008133659 26.7646441795,280.902682412 63.0111851676,357.597447137 z"/>
         </g>
         <path
             style="fill:url(#linearGradient_4B38DD7E);stroke:#1E8202;stroke-linecap:butt;stroke-width:4.290181013413;stroke-miterlimit:4"
             id="4B38DD7E"
             d="M67.9281728523,397.642383858 C107.751718643,467.624803458 187.037656945,505.371560051 310.79360632,471.604757196 C324.749602349,469.645603645 338.698851627,467.15815812 352.224367952,463.223173032 C354.156542549,462.660885603 384.791679252,454.781883059 386.705297329,454.158270078
C408.711163066,447.174646177 400.76065903,444.159990767 419.568471199,431.266709161 C556.92959735,312.425030062 428.191280859,17.7964725298 257.896893708,12.0850789893 C236.425556584,11.9311086173 215.024033074,15.4903361984 194.131231412,20.1990915381
C161.139568879,28.9932738629 131.299274451,46.6206867863 105.875776999,68.15354415 C86.0303444135,85.1689703321 72.2164773775,107.297418611 61.8246845069,130.288557847 C27.7427835372,225.442382844 28.1046213338,327.659962362 67.9281728523,397.642383858
z M97.2765863308,380.651179008 C52.2825945832,300.539739353 65.8202585606,176.92808516 95.3385464236,118.232929489 C105.628217593,100.560156448 119.980375614,84.9899483955 137.331047669,73.1008978948 C154.261216471,60.7179372042 172.6689208,51.1829718944 192.986354141,44.8904844725
C209.808948019,39.8758458287 227.358848049,37.2837844843 244.854018712,35.8493919267 C419.413995104,55.0745240403 519.666363986,321.396909633 395.17611006,419.957775639 C379.803953666,429.221633454 363.563703498,436.096152899 346.388668476,441.512703058
C315.288024469,450.396649464 282.965544194,453.088545668 250.671088445,454.460157676 C172.341279887,461.127427982 124.272981999,428.718047447 97.2765863308,380.651179008 z"/>
         <path
             style="fill:url(#linearGradient_6B38DD7E);stroke:#1E8202;stroke-linecap:butt;stroke-width:4.668909546437;stroke-miterlimit:4"
             id="6B38DD7E"
             d="M49.7977923725,276.352903274 C40.6132310152,435.452361033 282.038080953,514.474959276 388.614429979,403.935779583 C401.699848337,389.677858047 412.429504869,373.367229671 422.140462123,356.740943018 C436.629916927,329.716799742 443.721967499,299.794785288 445.709712411,270.610101568
C447.132796574,247.711478128 441.725472446,225.940617779 433.712508994,205.972584844 C356.584860133,52.6166224021 176.229569949,0.355395377 93.1893433862,151.615817532 C85.9648241678,162.04983977 76.3993360675,201.993161528 70.6641550438,213.25894813
C53.0528134847,235.185751567 51.8253424176,263.52599809 49.7977923725,276.352903274 z M87.6987441453,221.659191655 C100.988368815,195.847600537 99.1613465001,170.845660406 117.845624804,148.492444899 C233.154549607,-1.133989757629 391.099249076,150.435879535 420.937005957,235.19431085
C425.703887943,252.081091456 426.708015737,270.489993478 423.605861331,288.817615277 C421.0653261,307.144120303 415.858702528,324.845763595 407.480850212,341.984872636 C400.422510959,356.065114091 391.417595808,369.258482612 381.725575631,381.75975603
C264.163528827,487.492870638 57.5770263872,405.473409491 71.5890212418,266.46279262 C75.126991539,250.944278824 80.6771744328,236.202597401 87.6987441453,221.659191655 z"/>
      </g>
      <g
          id="6AED73AE">
         <path
             style="fill:#FF5500;stroke:none"
             id="D8ED73AE"
             d="M294.625843609,343.490478582 C285.931350577,326.461811916 277.236857545,309.433145249 268.542364513,292.404478582 C266.274235896,288.099478582 264.006107278,287.525478582 258.619301813,288.673478582 C248.97975519,290.969478582 239.340208568,293.265478582 229.700661945,295.561478582
C228.850113714,296.135478582 228.566597637,295.561478582 228.566597637,294.126478582 C229.417145868,275.184478582 230.267694099,256.242478582 231.118242331,237.300478582 C231.118242331,234.717478582 232.535822716,233.569478582 235.087467411,233.569478582
C245.388551547,233.569478582 255.689635682,233.569478582 265.990719818,233.569478582 C270.243460975,232.708478582 271.377525284,235.291478582 272.511589592,237.300478582 C272.79510567,238.448478582 273.929169978,240.457478582 275.346750364,243.327478582
C276.76433075,246.197478582 277.614878981,249.067478582 278.465427212,252.224478582 C280.733555829,255.668478582 283.285200524,253.372478582 284.135748755,251.363478582 C287.159920244,244.188478582 290.184091734,237.013478582 293.208263223,229.838478582
C295.192875763,225.246478582 289.806070298,225.246478582 287.254425604,225.246478582 C260.88743043,225.246478582 234.520435256,225.246478582 208.153440083,225.246478582 C205.885311466,225.246478582 204.184215003,225.533478582 203.333666772,225.820478582
C201.065538154,226.968478582 200.498506,228.690478582 200.782022077,230.125478582 C200.782022077,230.890811916 200.782022077,231.656145249 200.782022077,232.421478582 C200.782022077,232.421478582 200.782022077,234.143478582 201.065538154,237.874478582
C201.065538154,242.370811916 201.065538154,246.867145249 201.065538154,251.363478582 C201.065538154,257.199145249 201.065538154,263.034811916 201.065538154,268.870478582 C201.065538154,281.211478582 200.782022077,290.969478582 199.931473846,303.884478582
C199.647957769,310.007145249 199.364441692,316.129811916 199.080925614,322.252478582 C198.797409537,327.035811916 198.51389346,331.819145249 198.230377383,336.602478582 C198.041366665,338.515811916 197.852355947,340.429145249 197.663345229,342.342478582
C197.663345229,347.221478582 199.080925614,350.665478582 204.751247157,350.665478582 C232.630328075,350.665478582 260.509408994,350.665478582 288.388489912,350.665478582 C290.940134606,350.665478582 292.641231069,350.378478582 293.775295378,349.804478582
C296.043423995,348.656478582 296.326940072,347.221478582 295.47639184,345.499478582 z M265.990719818,338.324478582 C267.408300204,341.481478582 268.258848435,342.629478582 265.140171587,342.629478582 C253.516012424,342.629478582 241.891853262,342.629478582 230.267694099,342.629478582
C227.149017251,342.629478582 226.581985097,341.194478582 226.581985097,336.889478582 C226.865501174,329.810145249 227.149017251,322.730811916 227.432533328,315.651478582 C227.999565482,311.346478582 228.566597637,308.476478582 229.133629791,306.467478582
C229.700661945,304.745478582 230.551210176,303.597478582 231.685274485,303.310478582 C235.654499565,302.353811916 239.623724645,301.397145249 243.592949725,300.440478582 C245.01053011,299.579478582 246.428110496,301.014478582 247.562174805,302.162478582
C248.129206959,303.023478582 248.696239113,303.597478582 248.97975519,304.458478582 C249.263271267,305.319478582 249.263271267,305.893478582 249.546787345,306.180478582 z"/>
         <path
             style="fill:#FF5500;stroke:none"
             id="59ED73AE"
             d="M298.028036535,174.160478582 C298.878584766,174.160478582 299.44561692,173.299478582 299.44561692,171.864478582 C299.44561692,170.142478582 298.878584766,169.281478582 298.028036535,169.281478582 C297.744520458,169.281478582 297.177488303,168.994478582 296.610456149,168.707478582
C295.759907918,168.420478582 294.909359686,168.420478582 294.058811455,168.420478582 C291.790682838,168.707478582 290.940134606,166.124478582 290.656618529,164.115478582 C290.373102452,162.967478582 290.373102452,161.532478582 290.373102452,159.523478582
C290.373102452,157.610145249 290.373102452,155.696811916 290.373102452,153.783478582 C290.373102452,151.774478582 290.373102452,149.765478582 290.373102452,147.756478582 C290.373102452,145.938811916 290.373102452,144.121145249 290.373102452,142.303478582
C290.373102452,140.294478582 290.089586375,138.859478582 288.104973835,137.998478582 C285.553329141,137.711478582 282.434652292,137.711478582 278.181911135,137.711478582 C274.968728928,137.711478582 271.75554672,137.711478582 268.542364513,137.711478582
C267.408300204,137.711478582 266.557751973,139.433478582 266.557751973,140.581478582 C266.557751973,142.016478582 266.557751973,143.738478582 266.84126805,145.747478582 C266.84126805,149.765478582 267.124784127,154.070478582 267.124784127,157.801478582
C267.124784127,161.245478582 267.124784127,163.541478582 266.557751973,165.837478582 C266.274235896,167.272478582 265.423687664,167.846478582 264.289623356,167.846478582 C252.94898027,167.846478582 238.773176413,167.559478582 225.164404711,166.985478582
C211.555633008,166.411478582 198.797409537,165.550478582 189.724895069,163.254478582 C186.606218221,162.393478582 185.188637835,167.272478582 189.441378992,170.429478582 C190.291927223,171.290478582 190.5754433,172.151478582 190.291927223,173.586478582
C190.008411146,175.021478582 189.724895069,176.169478582 189.724895069,177.317478582 C189.724895069,181.335478582 190.008411146,184.779478582 190.291927223,187.362478582 C190.5754433,189.945478582 190.5754433,192.241478582 190.291927223,193.676478582
C190.291927223,195.111478582 191.142475455,195.972478582 192.56005584,195.972478582 C197.379829152,196.833478582 207.869924006,197.120478582 212.122665163,196.259478582 C212.973213394,195.972478582 213.540245548,195.111478582 213.540245548,193.963478582
C213.256729471,191.093478582 212.973213394,187.936478582 212.973213394,184.492478582 C212.973213394,181.048478582 213.256729471,178.178478582 213.540245548,176.169478582 C213.540245548,174.734478582 214.107277703,174.160478582 215.524858088,174.160478582
C226.865501174,174.447478582 242.458885416,174.734478582 258.052269659,174.734478582 C273.078621747,174.734478582 288.104973835,174.447478582 298.028036535,174.160478582 z"/>
      </g>
   </g>
</svg>
