<?xml version="1.0" encoding="UTF-8" standalone="no"?>
<!-- Created with Inkscape (http://www.inkscape.org/) -->

<svg
   width="393.97162"
   height="132.52669"
   viewBox="0 0 104.23832 35.064352"
   version="1.1"
   id="svg69"
   xmlns="http://www.w3.org/2000/svg"
   xmlns:svg="http://www.w3.org/2000/svg"
   xmlns:rdf="http://www.w3.org/1999/02/22-rdf-syntax-ns#"
   xmlns:cc="http://creativecommons.org/ns#"
   xmlns:dc="http://purl.org/dc/elements/1.1/">
  <title
     id="title66">Шаблон 262144px</title>
  <defs
     id="defs66" />
  <g
     id="layer1"
     transform="translate(-1.4325717,0.21777856)">
    <path
       style="font-variation-settings:normal;opacity:1;vector-effect:none;fill:#36f236;fill-opacity:1;stroke:#209100;stroke-width:1.00542;stroke-linecap:butt;stroke-linejoin:miter;stroke-miterlimit:4;stroke-dasharray:none;stroke-dashoffset:0;stroke-opacity:1;-inkscape-stroke:none;stop-color:black;stop-opacity:1"
       id="path848"
       d="m 4.778085,6.6255293 c 0.9894284,-0.1628947 1.9875745,-0.194774 2.9880922,-0.2147017 1.672704,-0.021159 3.3453738,0.025318 5.0169898,0.081883 1.443569,0.041084 2.886063,0.1100305 4.329509,0.1542143 1.245498,0.047595 2.491643,0.078945 3.737858,0.099772 1.147521,0.023342 2.295065,0.048544 3.44285,0.052003 1.136256,0.00405 2.272507,0.017338 3.408774,0.014859 1.145844,0.00689 2.291815,0.010933 3.437665,0.0014 1.325202,-9.789e-4 2.64981,-0.00672 3.974698,0.027645 1.435473,0.030466 2.870215,0.077914 4.305101,0.1278732 1.472652,0.056825 2.945839,0.072246 4.419417,0.081965 1.39649,-0.00501 2.792969,-0.00487 4.189453,-0.013742 1.25631,0.00169 2.512578,0.011853 3.768883,0.00887 1.320388,-0.029995 2.64128,-0.018852 3.96194,-0.023889 1.400588,-0.025352 2.801189,-0.010594 4.201866,-0.00334 1.387036,-0.00556 2.77422,-0.013293 4.161023,-0.040947 1.355397,-0.00721 2.710611,-0.032412 4.065987,-0.039562 1.328285,-0.015684 2.656361,-0.042738 3.984598,-0.061585 1.305709,-0.02404 2.611634,-0.050319 3.917106,-0.086168 1.1849,-0.036135 2.369916,-0.065653 3.555061,-0.091859 1.215369,-0.020728 2.430616,-0.050302 3.645741,-0.082038 1.645195,-0.019934 3.2883,-0.1043789 4.933445,-0.1252225 1.740511,-0.02118 3.480991,-0.044293 5.221531,-0.064133 1.369967,-0.00974 2.739935,-0.00132 4.109905,-0.0022 0.84754,-0.00568 1.695095,-0.00952 2.542652,-0.00773 0.46013,-0.00341 0.92025,-0.00847 1.38039,-0.00535 0.13376,0.00297 0.26754,0.00515 0.40132,0.00729 2.73281,-0.072074 2.63088,-3.936856 -0.10193,-3.8647817 v 0 c -0.1319,0.00914 -0.26379,0.018295 -0.39564,0.028039 -0.46925,0.026597 -0.93887,0.046046 -1.408056,0.073731 -0.832421,0.056762 -1.665195,0.1093341 -2.498677,0.1479966 -1.363253,0.061181 -2.728045,0.077531 -4.091795,0.1254291 -1.734351,0.041494 -3.468375,0.09952 -5.203245,0.115561 -1.640401,0.020672 -3.280781,-0.00297 -4.921282,0.00664 -1.233474,-0.010266 -2.467602,-0.014068 -3.700669,0.02363 -1.193998,0.030447 -2.387708,0.072262 -3.581027,0.1227973 -1.286949,0.045334 -2.574282,0.075614 -3.861908,0.093874 -1.318011,0.023254 -2.635835,0.052885 -3.95378,0.079223 -1.363184,0.012867 -2.726386,0.012623 -4.089368,0.044567 -1.370994,0.010898 -2.741732,0.05081 -4.11294,0.029428 -1.401366,0.00848 -2.802644,0.024585 -4.203962,0.00183 -1.32262,-0.00233 -2.645365,0.012073 -3.967813,-0.01188 -1.259115,0.00365 -2.51809,0.022103 -3.777123,0.036167 -1.391222,0.00503 -2.782261,0.024447 -4.173474,0.030003 -1.438362,0.011271 -2.876513,-0.020188 -4.313293,-0.089945 -1.440331,-0.034274 -2.880019,-0.08468 -4.320368,-0.1172097 -1.35286,-0.032882 -2.70532,-0.093665 -4.058637,-0.094571 -1.143373,-0.012779 -2.286881,-0.012729 -3.430302,-0.013467 -1.130519,-0.010282 -2.261125,-0.00643 -3.391635,-0.019809 -1.136725,-0.015184 -2.273578,-0.013504 -3.41032,-0.02824 C 19.67745,3.1179066 18.442236,3.0955477 17.207039,3.0704536 15.761715,3.0383271 14.316093,3.0198959 12.870612,2.9960223 11.171446,2.9684924 9.4722541,2.9336433 7.7734588,2.8902559 6.7746789,2.866581 5.7723918,2.8453479 4.778085,2.7479786 c -2.7418495,0 -2.7418495,3.8775608 0,3.8775608 z" />
    <path
       style="font-variation-settings:normal;opacity:1;vector-effect:none;fill:#36f236;fill-opacity:1;stroke:#209100;stroke-width:1.00542;stroke-linecap:butt;stroke-linejoin:miter;stroke-miterlimit:4;stroke-dasharray:none;stroke-dashoffset:0;stroke-opacity:1;-inkscape-stroke:none;stop-color:black;stop-opacity:1"
       id="path850"
       d="m 4.2933958,13.068931 c -0.017087,-0.0034 -0.068163,-0.006 -0.051258,-0.01015 0.064442,-0.01597 0.3736446,-0.0058 0.3785606,-0.0057 0.3856469,0.0037 0.7689799,0.02506 1.1542831,0.04357 1.2283773,0.07432 2.4560988,0.158402 3.6841311,0.237918 1.2691484,0.07583 2.5365124,0.177819 3.8059354,0.248997 1.1158,0.07154 2.233581,0.105291 3.351129,0.135446 1.091384,0.02999 2.18332,0.03533 3.274975,0.05314 1.514805,0.0051 3.028671,-0.05865 4.543,-0.08458 0.358838,-0.0075 0.717735,-0.0125 1.076517,-0.02235 0.418317,-0.01149 0.836341,-0.03345 1.254736,-0.04167 1.853578,-0.03643 3.708476,-0.0045 5.562213,-0.0068 0.49239,-0.002 0.984859,0.0029 1.477173,-0.006 1.808086,-0.03279 3.615313,-0.125201 5.423135,-0.169199 1.394627,-0.03394 2.620441,-0.03965 4.014841,-0.05219 3.745949,-0.07062 7.492435,-0.110969 11.239034,-0.11746 2.521508,-0.02185 5.043127,-0.004 7.564638,-0.01369 1.74716,-0.0098 3.493871,0.02927 5.240645,0.05773 1.638009,0.0396 3.276795,0.03111 4.915177,0.04434 2.097575,-0.02067 4.195035,-0.03982 6.292609,-0.0072 2.036599,0.03769 4.073465,0.06234 6.110031,0.101563 1.553549,0.02075 3.106465,0.07213 4.660183,0.08015 1.156856,0.0046 2.313805,0.0032 3.470659,-0.0038 0.978215,0.0032 1.95626,-0.005 2.933956,-0.03784 0.838298,-0.03984 1.677422,-0.06076 2.515669,-0.100551 0.655344,-0.03394 1.310971,-0.05789 1.966922,-0.07602 0.40106,-0.01041 0.80206,-0.01942 1.20327,-0.02119 0.21908,-0.0038 0.43816,-8.2e-4 0.65722,-0.0053 0.10788,-6.35e-4 0.055,-5.55e-4 0.15857,-2.91e-4 2.74586,-0.06858 2.64887,-3.9518236 -0.097,-3.8832401 v 0 c -0.11016,0.00563 -0.0535,0.0029 -0.17,0.00812 -0.23251,0.00802 -0.46432,0.027288 -0.69659,0.04018 -0.41477,0.029884 -0.82999,0.052318 -1.244622,0.083841 -0.656741,0.0472 -1.313339,0.095948 -1.970377,0.1389774 -0.82465,0.046785 -1.649928,0.08097 -2.474448,0.1304052 -0.941489,0.046701 -1.883824,0.054976 -2.826155,0.072845 -1.148974,0.020423 -2.297668,0.05447 -3.446462,0.082849 -1.539862,0.025487 -3.080015,0.039271 -4.620025,0.04999 -2.031907,0.01466 -4.064013,0.01026 -6.095942,0.0059 -2.101186,-0.01121 -4.2003,-0.090772 -6.300565,-0.1432618 -1.63264,-0.01202 -3.264892,-0.051214 -4.897506,-0.059753 -1.782374,-0.016425 -3.565141,-0.00973 -5.34629,0.067122 -2.52654,0.081622 -5.051547,0.2073988 -7.577352,0.3085918 -3.73022,0.172474 -7.462694,0.30504 -11.197351,0.317523 -1.322033,0.01759 -2.689149,0.04131 -4.011271,0.03666 -2.284172,-0.008 -4.567047,-0.09714 -6.851153,-0.103045 -1.854541,-0.02635 -3.710228,-0.02508 -5.564169,-0.08521 -0.422969,-0.01372 -0.8454,-0.04134 -1.268333,-0.05609 -0.357598,-0.01248 -0.715428,-0.01706 -1.073142,-0.02559 -1.504341,-0.03338 -3.006835,-0.118955 -4.511235,-0.148375 -1.074243,-0.0061 -2.14814,-0.02737 -3.222105,-0.05105 C 15.623474,10.051128 14.537981,10.016609 13.45274,9.9732832 12.20269,9.9135691 10.952885,9.8502053 9.7042871,9.7644499 8.5073087,9.677388 7.3115725,9.5753927 6.1194735,9.435272 5.5104082,9.3477947 4.9020269,9.2514776 4.2933958,9.1658783 c -2.7598751,0 -2.7598751,3.9030527 0,3.9030527 z" />
    <path
       style="font-variation-settings:normal;opacity:1;vector-effect:none;fill:#36f236;fill-opacity:1;stroke:#209100;stroke-width:1.00542;stroke-linecap:butt;stroke-linejoin:miter;stroke-miterlimit:4;stroke-dasharray:none;stroke-dashoffset:0;stroke-opacity:1;-inkscape-stroke:none;stop-color:black;stop-opacity:1"
       id="path852"
       d="m 3.9968585,20.581562 c 0.7642026,-0.102729 1.536238,-0.09973 2.3057567,-0.100486 1.7881404,-0.02621 3.5764683,-0.05648 5.3648358,-0.04358 2.212954,-0.009 4.424988,0.07024 6.63782,0.0621 2.392369,-0.0013 4.784689,0.02856 7.177017,0.01246 2.617139,1.76e-4 5.233723,0.06354 7.850576,0.09795 2.464477,0.02632 4.92828,0.09965 7.392048,0.162895 1.927794,0.04671 3.856014,0.07722 5.783368,0.140597 2.211314,0.04417 4.4224,0.03723 6.633573,0.103344 2.160365,0.06674 4.321381,0.107499 6.482035,0.162772 2.27788,0.04524 4.555188,0.02712 6.832089,-0.04852 3.485573,-0.03335 6.971557,-0.0673 10.457312,-0.04975 3.152833,0.006 6.305484,0.04177 9.457918,0.09059 2.07814,0.01358 4.15635,0.04422 6.234567,0.03601 1.338241,-0.01679 2.676702,-0.03362 4.014301,-0.07988 1.211249,-0.02457 2.42267,-0.03526 3.634055,-0.01581 0.76235,0.01935 1.52446,0.04697 2.28652,0.07515 0.19844,0.0062 0.39671,0.01651 0.59505,0.02526 2.71391,-0.0042 2.70804,-3.842208 -0.006,-3.838056 v 0 c -0.19829,0.0094 -0.39652,0.02031 -0.59493,0.02705 -0.76335,0.03053 -1.52674,0.06056 -2.29037,0.0835 -1.244743,0.02646 -2.489592,0.01669 -3.734335,0.04401 -1.330891,0.03528 -2.659594,0.107866 -3.988202,0.192643 -2.055045,0.09128 -4.110402,0.171611 -6.166948,0.222272 -3.144686,0.08022 -6.289833,0.153904 -9.435639,0.16625 -3.476321,0.0032 -6.953126,-0.04216 -10.428258,-0.132311 -2.271022,-0.125836 -4.544082,-0.184423 -6.81822,-0.220427 -2.1477,-0.007 -4.295598,0.01807 -6.443126,-0.01743 -1.151961,-0.02737 -1.326467,-0.02521 -2.481259,-0.07811 -1.386502,-0.06352 -2.769947,-0.193553 -4.158655,-0.202896 -1.941923,-0.02833 -3.88388,-0.05068 -5.826006,-0.03725 -2.458495,0.006 -4.917601,0.01203 -7.375546,-0.04598 -0.87522,-0.01851 -1.750295,-0.04535 -2.62564,-0.05666 -1.75147,-0.02262 -3.503756,-0.0087 -5.254679,-0.07033 -2.390686,-0.05379 -4.781423,-0.05014 -7.172552,-0.06357 -2.21196,-0.04906 -4.424505,-0.07279 -6.635634,-0.155755 -1.7652228,-0.02072 -3.5315671,-0.04132 -5.2945745,-0.136745 -0.8043471,-0.04672 -1.6085029,-0.09971 -2.408388,-0.198415 -2.748609,0 -2.748609,3.88712 0,3.88712 z" />
    <path
       style="font-variation-settings:normal;opacity:1;vector-effect:none;fill:#36f236;fill-opacity:1;stroke:#209100;stroke-width:1.00542;stroke-linecap:butt;stroke-linejoin:miter;stroke-miterlimit:4;stroke-dasharray:none;stroke-dashoffset:0;stroke-opacity:1;-inkscape-stroke:none;stop-color:black;stop-opacity:1"
       id="path854"
       d="m 6.6574193,2.9793768 c 0.066881,0.4804469 0.098312,0.9642129 0.1205748,1.4484861 0.039599,0.8900432 0.063466,1.780745 0.073998,2.6715852 0.015549,1.0186617 0.019322,2.0374072 0.027685,3.0561519 -0.00492,1.048111 0.00868,2.096122 0.020794,3.144124 0.023998,0.947342 0.031086,1.894847 0.026482,2.842453 -0.00384,0.634967 -0.00865,1.269936 -0.010184,1.904914 -0.00151,0.38511 -0.03184,0.769412 -0.054363,1.15371 -0.00406,0.263798 -0.028635,0.525076 -0.060521,0.786504 -0.025905,0.2123 -0.050428,0.424731 -0.07565,0.637113 -0.00784,0.06541 -0.015944,0.130783 -0.024056,0.196158 -0.2403923,2.744471 3.6408759,3.084437 3.8812679,0.339966 v 0 c 0.0031,-0.06205 0.0062,-0.124095 0.0097,-0.186119 0.01158,-0.195591 0.02704,-0.390971 0.04548,-0.586033 0.0309,-0.340266 0.04797,-0.680796 0.05267,-1.02243 0.01261,-0.453585 0.02935,-0.90777 0.0087,-1.361369 -0.01585,-0.641657 -0.03784,-1.283161 -0.06322,-1.924508 -0.03628,-0.949578 -0.06433,-1.899371 -0.08075,-2.849506 -0.02736,-1.029967 -0.01564,-2.059919 -0.02534,-3.090097 -9.6e-5,-1.0261402 -0.0064,-2.0522187 -0.01031,-3.0783345 -0.0078,-0.9106606 -0.0037,-1.8213628 -0.0092,-2.7320432 -0.0031,-0.4506714 -0.01581,-0.9039276 0.05241,-1.3507255 0,-2.7621283 -3.9062388,-2.7621283 -3.9062388,0 z" />
    <path
       style="font-variation-settings:normal;opacity:1;vector-effect:none;fill:#36f236;fill-opacity:1;stroke:#209100;stroke-width:1.00542;stroke-linecap:butt;stroke-linejoin:miter;stroke-miterlimit:4;stroke-dasharray:none;stroke-dashoffset:0;stroke-opacity:1;-inkscape-stroke:none;stop-color:black;stop-opacity:1"
       id="path856"
       d="m 54.733782,2.5067402 c 0.04312,0.9723036 0.132863,1.9415356 0.182314,2.9136152 0.05343,1.7403257 0.09263,3.4807644 0.190873,5.2193476 0.109297,1.94571 0.224517,3.890553 0.378013,5.833286 0.130468,1.477392 0.236431,2.956688 0.352546,4.435219 0.06392,0.747668 0.09678,1.497528 0.125852,2.247212 0.0095,0.289895 0.0051,0.150736 0.01323,0.417474 0.227777,2.6977 4.0429,2.375576 3.815125,-0.322124 v 0 c -0.03575,-0.250116 -0.01757,-0.117727 -0.05402,-0.397241 -0.09377,-0.778239 -0.182909,-1.557186 -0.300474,-2.332317 -0.198466,-1.44446 -0.360696,-2.893175 -0.516128,-4.342871 -0.175371,-1.89137 -0.319341,-3.786451 -0.41276,-5.683688 -0.04803,-1.7258595 -0.02672,-3.4512913 -0.04055,-5.1776436 -0.0056,-0.8150751 -0.03619,-1.6579344 0.14016,-2.4580704 0.249053,-2.7394633 -3.625135,-3.09166204 -3.874177,-0.3521988 z" />
    <path
       style="font-variation-settings:normal;opacity:1;vector-effect:none;fill:#36f236;fill-opacity:1;stroke:#209100;stroke-width:1.00542;stroke-linecap:butt;stroke-linejoin:miter;stroke-miterlimit:4;stroke-dasharray:none;stroke-dashoffset:0;stroke-opacity:1;-inkscape-stroke:none;stop-color:black;stop-opacity:1"
       id="path858"
       d="m 92.660186,2.349768 c 0.06779,0.6524249 0.138678,1.3045326 0.208391,1.9568355 0.11974,0.9880973 0.102431,1.9839276 0.119774,2.9769282 0.03165,1.0939774 -0.0016,2.1882221 -0.02294,3.2820373 -0.01744,0.953539 -0.07927,1.905382 -0.102439,2.858742 -0.0218,0.93341 -0.03709,1.866929 -0.04328,2.800588 -0.0181,0.706224 0.01262,1.412057 0.02661,2.118017 0.01797,0.486919 0.05571,0.972765 0.08432,1.459095 0.01672,0.340553 0.03397,0.681174 0.04085,1.02209 0.0024,0.160698 0.0027,0.321417 0.0028,0.482129 0.101605,2.736604 3.971748,2.592915 3.870142,-0.143689 v 0 c -0.01207,-0.165039 -0.02402,-0.330088 -0.03448,-0.495239 -0.02268,-0.376717 -0.03861,-0.753853 -0.07228,-1.129857 -0.03577,-0.451752 -0.08,-0.902594 -0.124018,-1.35362 -0.0432,-0.661997 -0.07105,-1.324656 -0.08524,-1.987931 -0.02032,-0.887551 -0.02553,-1.774727 0.0177,-2.661865 0.03435,-0.96916 0.05407,-1.938915 0.06212,-2.908642 0.015,-1.1238861 0.02529,-2.2477279 0.02712,-3.3717088 7.94e-4,-1.0835359 -0.02598,-2.1679291 -0.09397,-3.2494082 -0.03171,-0.5516208 -0.07656,-1.1053582 0.0123,-1.654502 0,-2.75311544 -3.893494,-2.75311544 -3.893494,0 z" />
    <circle
       id="path1090"
       style="fill:#36f236;stroke:#209100;stroke-width:0.264583"
       cx="48.72039"
       cy="34.660141"
       r="0.054139197" />
  </g>
  <metadata
     id="metadata64">
    <rdf:RDF>
      <cc:Work
         rdf:about="">
        <dc:title>Шаблон 262144px</dc:title>
        <dc:date>2022</dc:date>
        <dc:creator>
          <cc:Agent>
            <dc:title>YSTM</dc:title>
          </cc:Agent>
        </dc:creator>
        <dc:rights>
          <cc:Agent>
            <dc:title>FREE</dc:title>
          </cc:Agent>
        </dc:rights>
        <dc:publisher>
          <cc:Agent>
            <dc:title>YSTM</dc:title>
          </cc:Agent>
        </dc:publisher>
        <dc:subject>
          <rdf:Bag>
            <rdf:li>YSTM</rdf:li>
          </rdf:Bag>
        </dc:subject>
      </cc:Work>
    </rdf:RDF>
  </metadata>
</svg>
