<?xml version="1.0" encoding="UTF-8" standalone="no" ?>
<!DOCTYPE svg PUBLIC "-//W3C//DTD SVG 1.1//EN" "http://www.w3.org/Graphics/SVG/1.1/DTD/svg11.dtd">
<svg xmlns="http://www.w3.org/2000/svg" xmlns:xlink="http://www.w3.org/1999/xlink" version="1.1" width="800" height="277" viewBox="0 0 800 277" xml:space="preserve">
<desc>Created with Fabric.js 4.6.0</desc>
<defs>
</defs>
<g transform="matrix(1.29 0 0 1.29 127.29 138.71)" id="Pj_2QHCPuwAmaDTjU7ZaJ"  >
<path style="stroke: rgb(23,125,210); stroke-width: 0; stroke-dasharray: none; stroke-linecap: butt; stroke-dashoffset: 0; stroke-linejoin: miter; stroke-miterlimit: 4; fill: rgb(44,135,191); fill-rule: nonzero; opacity: 1;" vector-effect="non-scaling-stroke"  transform=" translate(0, 0)" d="M 0 -74.88789 C 41.33812 -74.88789 74.88789 -41.33811 74.88789 0 C 74.88789 41.33812 41.33811 74.88789 0 74.88789 C -41.33812 74.88789 -74.88789 41.33811 -74.88789 0 C -74.88789 -41.33812 -41.33811 -74.88789 0 -74.88789 z" stroke-linecap="round" />
</g>
<g transform="matrix(1.29 0 0 1.29 669.52 138.71)" id="MOp9qhvTlfWotaCd6cWVg"  >
<path style="stroke: rgb(23,125,210); stroke-width: 0; stroke-dasharray: none; stroke-linecap: butt; stroke-dashoffset: 0; stroke-linejoin: miter; stroke-miterlimit: 4; fill: rgb(143,113,97); fill-rule: nonzero; opacity: 1;" vector-effect="non-scaling-stroke"  transform=" translate(0, 0)" d="M 0 -74.88789 C 41.33812 -74.88789 74.88789 -41.33811 74.88789 0 C 74.88789 41.33812 41.33811 74.88789 0 74.88789 C -41.33812 74.88789 -74.88789 41.33811 -74.88789 0 C -74.88789 -41.33812 -41.33811 -74.88789 0 -74.88789 z" stroke-linecap="round" />
</g>
<g transform="matrix(1.29 0 0 1.29 537.34 138.92)" id="-6q0_Bd1ebp6SygPs93tx"  >
<filter id="SVGID_32" y="-26%" height="152%" x="-25%" width="150%" >
	<feGaussianBlur in="SourceAlpha" stdDeviation="3.5"></feGaussianBlur>
	<feOffset dx="0" dy="2" result="oBlur" ></feOffset>
	<feFlood flood-color="rgb(0,0,0)" flood-opacity="1"/>
	<feComposite in2="oBlur" operator="in" />
	<feMerge>
		<feMergeNode></feMergeNode>
		<feMergeNode in="SourceGraphic"></feMergeNode>
	</feMerge>
</filter>
<path style="stroke: rgb(23,125,210); stroke-width: 0; stroke-dasharray: none; stroke-linecap: butt; stroke-dashoffset: 0; stroke-linejoin: miter; stroke-miterlimit: 4; fill: rgb(124,150,85); fill-rule: nonzero; opacity: 1;filter: url(#SVGID_32);" vector-effect="non-scaling-stroke"  transform=" translate(0, 0)" d="M 0 -74.88789 C 41.33812 -74.88789 74.88789 -41.33811 74.88789 0 C 74.88789 41.33812 41.33811 74.88789 0 74.88789 C -41.33812 74.88789 -74.88789 41.33811 -74.88789 0 C -74.88789 -41.33812 -41.33811 -74.88789 0 -74.88789 z" stroke-linecap="round" />
</g>
<g transform="matrix(1.29 0 0 1.29 260.97 138.5)" id="B0D6s7AWo20Q0gMQFa26t"  >
<filter id="SVGID_28" y="-26%" height="152%" x="-25%" width="150%" >
	<feGaussianBlur in="SourceAlpha" stdDeviation="3.5"></feGaussianBlur>
	<feOffset dx="0" dy="2" result="oBlur" ></feOffset>
	<feFlood flood-color="rgb(0,0,0)" flood-opacity="0.67"/>
	<feComposite in2="oBlur" operator="in" />
	<feMerge>
		<feMergeNode></feMergeNode>
		<feMergeNode in="SourceGraphic"></feMergeNode>
	</feMerge>
</filter>
<path style="stroke: rgb(23,125,210); stroke-width: 0; stroke-dasharray: none; stroke-linecap: butt; stroke-dashoffset: 0; stroke-linejoin: miter; stroke-miterlimit: 4; fill: rgb(242,152,73); fill-rule: nonzero; opacity: 1;filter: url(#SVGID_28);" vector-effect="non-scaling-stroke"  transform=" translate(0, 0)" d="M 0 -74.88789 C 41.33812 -74.88789 74.88789 -41.33811 74.88789 0 C 74.88789 41.33812 41.33811 74.88789 0 74.88789 C -41.33812 74.88789 -74.88789 41.33811 -74.88789 0 C -74.88789 -41.33812 -41.33811 -74.88789 0 -74.88789 z" stroke-linecap="round" />
</g>
<g transform="matrix(1.29 0 0 1.29 389.76 138.5)" id="Bjr9LymFNNjkr3cCuKlsG"  >
<path style="stroke: rgb(0,0,0); stroke-width: 0; stroke-dasharray: none; stroke-linecap: butt; stroke-dashoffset: 0; stroke-linejoin: miter; stroke-miterlimit: 4; fill: rgb(227,66,52); fill-rule: nonzero; opacity: 1;" vector-effect="non-scaling-stroke"  transform=" translate(0, 0)" d="M 0 -74.88789 C 41.33812 -74.88789 74.88789 -41.33811 74.88789 0 C 74.88789 41.33812 41.33811 74.88789 0 74.88789 C -41.33812 74.88789 -74.88789 41.33811 -74.88789 0 C -74.88789 -41.33812 -41.33811 -74.88789 0 -74.88789 z" stroke-linecap="round" />
</g>
<g transform="matrix(0.61 0.59 -0.62 0.64 391.76 136.5)" id="htjZ6R60NrY0kEt_hu2X-"  >
<path style="stroke: rgb(0,0,0); stroke-width: 12; stroke-dasharray: none; stroke-linecap: butt; stroke-dashoffset: 0; stroke-linejoin: miter; stroke-miterlimit: 4; fill: rgb(255,255,255); fill-rule: nonzero; opacity: 1;" vector-effect="non-scaling-stroke"  transform=" translate(0, 0)" d="M -43.57143 -17.36072 C -43.57143 -31.8365 -31.35629 -43.57143 -16.288149999999998 -43.57143 L 16.28816 -43.57143 L 16.28816 -43.57143 C 31.3563 -43.57143 43.57144 -31.836489999999998 43.57144 -17.36072 L 43.57144 17.360709999999997 L 43.57144 17.360709999999997 C 43.57144 31.836489999999998 31.356300000000005 43.571419999999996 16.28816 43.571419999999996 L -16.288149999999998 43.571419999999996 L -16.288149999999998 43.571419999999996 C -31.356289999999998 43.571419999999996 -43.57143 31.836479999999995 -43.57143 17.360709999999997 z" stroke-linecap="round" />
</g>
</svg>