<?xml version="1.0" encoding="UTF-8" standalone="no" ?>
<!DOCTYPE svg PUBLIC "-//W3C//DTD SVG 1.1//EN" "http://www.w3.org/Graphics/SVG/1.1/DTD/svg11.dtd">
<svg xmlns="http://www.w3.org/2000/svg" xmlns:xlink="http://www.w3.org/1999/xlink" version="1.1" width="320" height="110.80000000000001" viewBox="0 0 800 277" xml:space="preserve">
<desc>Created with Fabric.js 4.6.0</desc>
<defs>
</defs>
<g transform="matrix(1 0 0 1 682.65 134.66)" id="rsd712-WT0Xy9FVnlkn9L"  >
<filter id="SVGID_653" y="-22%" height="144%" x="-21%" width="142%" >
	<feGaussianBlur in="SourceAlpha" stdDeviation="1"></feGaussianBlur>
	<feOffset dx="0" dy="2" result="oBlur" ></feOffset>
	<feFlood flood-color="rgb(0,0,0)" flood-opacity="1"/>
	<feComposite in2="oBlur" operator="in" />
	<feMerge>
		<feMergeNode></feMergeNode>
		<feMergeNode in="SourceGraphic"></feMergeNode>
	</feMerge>
</filter>
<g style="filter: url(#SVGID_653);" vector-effect="non-scaling-stroke"   >
		<g transform="matrix(2.88 0.2 0.2 -2.88 0 0)" id="oDhmvM5BuNpkpHfLNQS0A"  >
<path style="stroke: none; stroke-width: 1; stroke-dasharray: none; stroke-linecap: butt; stroke-dashoffset: 0; stroke-linejoin: miter; stroke-miterlimit: 4; fill: rgb(179,181,179); fill-rule: nonzero; opacity: 1;" vector-effect="non-scaling-stroke"  transform=" translate(-40.05, -40.05)" d="M 69.4 0 L 10.6 0 C 9 0 7.6 1.4 7.6 3.1 L 7.6 77 C 7.6 78.7 9 80.1 10.7 80.1 L 53.8 80.1 C 54.599999999999994 80.1 55.4 79.8 56 79.19999999999999 L 71.6 63.59999999999999 C 72.19999999999999 62.999999999999986 72.5 62.29999999999999 72.5 61.399999999999984 L 72.5 3.1 C 72.4 1.4 71 0 69.4 0 z" stroke-linecap="round" />
</g>
		<g transform="matrix(2.92 0.2 0.2 -2.92 -1.6 1.69)" id="esGcuj8q7SKyRUTB4YLq9"  >
<path style="stroke: none; stroke-width: 1; stroke-dasharray: none; stroke-linecap: butt; stroke-dashoffset: 0; stroke-linejoin: miter; stroke-miterlimit: 4; fill: rgb(205,35,35); fill-rule: nonzero; opacity: 1;" vector-effect="non-scaling-stroke"  transform=" translate(-40, -40)" d="M 13.7 73.9 L 51.7 73.9 L 51.7 59.3 L 66.3 59.3 L 66.3 6.1 L 13.7 6.1 L 13.7 73.9 z" stroke-linecap="round" />
</g>
		<g transform="matrix(2.92 0.2 0.2 -2.92 -4.19 36.6)" id="YHVbzg4xdYC3SyWRC3knN"  >
<path style="stroke: none; stroke-width: 1; stroke-dasharray: none; stroke-linecap: butt; stroke-dashoffset: 0; stroke-linejoin: miter; stroke-miterlimit: 4; fill: rgb(179,181,179); fill-rule: nonzero; opacity: 1;" vector-effect="non-scaling-stroke"  transform=" translate(-39.95, -28.05)" d="M 21.7 17.9 C 21.7 16.799999999999997 22.599999999999998 15.899999999999999 23.7 15.899999999999999 L 56.2 15.899999999999999 C 57.300000000000004 15.899999999999999 58.2 16.799999999999997 58.2 17.9 C 58.2 19 57.300000000000004 19.9 56.2 19.9 L 23.7 19.9 C 22.6 19.9 21.7 19 21.7 17.9 z M 23.7 30.1 L 56.2 30.1 C 57.300000000000004 30.1 58.2 29.200000000000003 58.2 28.1 C 58.2 27 57.300000000000004 26.1 56.2 26.1 L 23.7 26.1 C 22.599999999999998 26.1 21.7 27 21.7 28.1 C 21.7 29.200000000000003 22.6 30.1 23.7 30.1 z M 23.7 40.2 L 56.2 40.2 C 57.300000000000004 40.2 58.2 39.300000000000004 58.2 38.2 C 58.2 37.1 57.300000000000004 36.2 56.2 36.2 L 23.7 36.2 C 22.599999999999998 36.2 21.7 37.1 21.7 38.2 C 21.7 39.300000000000004 22.6 40.2 23.7 40.2 z" stroke-linecap="round" />
</g>
		<g transform="matrix(1 0.05 -0.05 1 -7.27 -65.51)" style="" id="PNe1cpk7syNFHNvZoSGfo"  >
		<text xml:space="preserve" font-family="Open Sans" font-size="38" font-style="normal" font-weight="700" letter-spacing="0.076" line-height="1" style="stroke: none; stroke-width: 1; stroke-dasharray: none; stroke-linecap: butt; stroke-dashoffset: 0; stroke-linejoin: miter; stroke-miterlimit: 4; fill: rgb(179,179,179); fill-rule: nonzero; opacity: 1; white-space: pre;" ><tspan x="-43.71" y="10.91" >0</tspan><tspan x="-21.91" y="10.91" >0</tspan><tspan x="-0.1" y="10.91" >4</tspan></text>
</g>
</g>
</g>
<g transform="matrix(1 0 0 1 495.3 134.66)" id="YGTVzrHL-CC4gUTejipOX"  >
<filter id="SVGID_652" y="-22%" height="144%" x="-21%" width="142%" >
	<feGaussianBlur in="SourceAlpha" stdDeviation="1"></feGaussianBlur>
	<feOffset dx="0" dy="2" result="oBlur" ></feOffset>
	<feFlood flood-color="rgb(0,0,0)" flood-opacity="1"/>
	<feComposite in2="oBlur" operator="in" />
	<feMerge>
		<feMergeNode></feMergeNode>
		<feMergeNode in="SourceGraphic"></feMergeNode>
	</feMerge>
</filter>
<g style="filter: url(#SVGID_652);" vector-effect="non-scaling-stroke"   >
		<g transform="matrix(2.74 -0.14 -0.14 -2.74 0 0)" id="I-_4bhiyMvKerVZAGt-XV"  >
<path style="stroke: none; stroke-width: 1; stroke-dasharray: none; stroke-linecap: butt; stroke-dashoffset: 0; stroke-linejoin: miter; stroke-miterlimit: 4; fill: rgb(179,181,179); fill-rule: nonzero; opacity: 1;" vector-effect="non-scaling-stroke"  transform=" translate(-40.05, -40.05)" d="M 69.4 0 L 10.6 0 C 9 0 7.6 1.4 7.6 3.1 L 7.6 77 C 7.6 78.7 9 80.1 10.7 80.1 L 53.8 80.1 C 54.599999999999994 80.1 55.4 79.8 56 79.19999999999999 L 71.6 63.59999999999999 C 72.19999999999999 62.999999999999986 72.5 62.29999999999999 72.5 61.399999999999984 L 72.5 3.1 C 72.4 1.4 71 0 69.4 0 z" stroke-linecap="round" />
</g>
		<g transform="matrix(2.75 -0.14 -0.14 -2.75 0 0.14)" id="FiQAmf5HpOnGIMbcpC1zw"  >
<path style="stroke: none; stroke-width: 1; stroke-dasharray: none; stroke-linecap: butt; stroke-dashoffset: 0; stroke-linejoin: miter; stroke-miterlimit: 4; fill: rgb(108,59,244); fill-rule: nonzero; opacity: 1;" vector-effect="non-scaling-stroke"  transform=" translate(-40, -40)" d="M 13.7 73.9 L 51.7 73.9 L 51.7 59.3 L 66.3 59.3 L 66.3 6.1 L 13.7 6.1 L 13.7 73.9 z" stroke-linecap="round" />
</g>
		<g transform="matrix(2.75 -0.14 -0.14 -2.75 1.58 32.94)" id="8zWOcEvl9Oai4Pfx1Gljw"  >
<path style="stroke: none; stroke-width: 1; stroke-dasharray: none; stroke-linecap: butt; stroke-dashoffset: 0; stroke-linejoin: miter; stroke-miterlimit: 4; fill: rgb(179,181,179); fill-rule: nonzero; opacity: 1;" vector-effect="non-scaling-stroke"  transform=" translate(-39.95, -28.05)" d="M 21.7 17.9 C 21.7 16.799999999999997 22.599999999999998 15.899999999999999 23.7 15.899999999999999 L 56.2 15.899999999999999 C 57.300000000000004 15.899999999999999 58.2 16.799999999999997 58.2 17.9 C 58.2 19 57.300000000000004 19.9 56.2 19.9 L 23.7 19.9 C 22.6 19.9 21.7 19 21.7 17.9 z M 23.7 30.1 L 56.2 30.1 C 57.300000000000004 30.1 58.2 29.200000000000003 58.2 28.1 C 58.2 27 57.300000000000004 26.1 56.2 26.1 L 23.7 26.1 C 22.599999999999998 26.1 21.7 27 21.7 28.1 C 21.7 29.200000000000003 22.6 30.1 23.7 30.1 z M 23.7 40.2 L 56.2 40.2 C 57.300000000000004 40.2 58.2 39.300000000000004 58.2 38.2 C 58.2 37.1 57.300000000000004 36.2 56.2 36.2 L 23.7 36.2 C 22.599999999999998 36.2 21.7 37.1 21.7 38.2 C 21.7 39.300000000000004 22.6 40.2 23.7 40.2 z" stroke-linecap="round" />
</g>
		<g transform="matrix(1 0 0 1 -13.09 -63.72)" style="" id="YeO8WLytsHncx3L9pDEZE"  >
		<text xml:space="preserve" font-family="Open Sans" font-size="38" font-style="normal" font-weight="700" letter-spacing="0.076" line-height="1" style="stroke: none; stroke-width: 1; stroke-dasharray: none; stroke-linecap: butt; stroke-dashoffset: 0; stroke-linejoin: miter; stroke-miterlimit: 4; fill: rgb(49,168,247); fill-rule: nonzero; opacity: 1; white-space: pre;" ><tspan x="-43.71" y="10.91" >0</tspan><tspan x="-21.91" y="10.91" >0</tspan><tspan x="-0.1" y="10.91" >3</tspan></text>
</g>
</g>
</g>
<g transform="matrix(1 0 0 1 304.97 132.21)" id="BBR5l0oB0-GwrDyuy1CvG"  >
<filter id="SVGID_651" y="-22%" height="144%" x="-21%" width="142%" >
	<feGaussianBlur in="SourceAlpha" stdDeviation="1"></feGaussianBlur>
	<feOffset dx="0" dy="2" result="oBlur" ></feOffset>
	<feFlood flood-color="rgb(0,0,0)" flood-opacity="1"/>
	<feComposite in2="oBlur" operator="in" />
	<feMerge>
		<feMergeNode></feMergeNode>
		<feMergeNode in="SourceGraphic"></feMergeNode>
	</feMerge>
</filter>
<g style="filter: url(#SVGID_651);" vector-effect="non-scaling-stroke"   >
		<g transform="matrix(2.92 -0.26 -0.26 -2.92 0 0)" id="Hgx4GegGJ81jyk2cSAC9A"  >
<path style="stroke: rgb(0,0,0); stroke-width: 0; stroke-dasharray: none; stroke-linecap: butt; stroke-dashoffset: 0; stroke-linejoin: miter; stroke-miterlimit: 4; fill: rgb(146,146,146); fill-rule: nonzero; opacity: 1;" vector-effect="non-scaling-stroke"  transform=" translate(-40.05, -40.05)" d="M 69.4 0 L 10.6 0 C 9 0 7.6 1.4 7.6 3.1 L 7.6 77 C 7.6 78.7 9 80.1 10.7 80.1 L 53.8 80.1 C 54.599999999999994 80.1 55.4 79.8 56 79.19999999999999 L 71.6 63.59999999999999 C 72.19999999999999 62.999999999999986 72.5 62.29999999999999 72.5 61.399999999999984 L 72.5 3.1 C 72.4 1.4 71 0 69.4 0 z" stroke-linecap="round" />
</g>
		<g transform="matrix(2.92 -0.26 -0.26 -2.92 0 0.16)" id="GYZJv6V7xSqWAtUMFGXPg"  >
<path style="stroke: none; stroke-width: 1; stroke-dasharray: none; stroke-linecap: butt; stroke-dashoffset: 0; stroke-linejoin: miter; stroke-miterlimit: 4; fill: rgb(81,80,80); fill-rule: nonzero; opacity: 1;" vector-effect="non-scaling-stroke"  transform=" translate(-40, -40)" d="M 13.7 73.9 L 51.7 73.9 L 51.7 59.3 L 66.3 59.3 L 66.3 6.1 L 13.7 6.1 L 13.7 73.9 z" stroke-linecap="round" />
</g>
		<g transform="matrix(2.92 -0.26 -0.26 -2.92 2.9 35.05)" id="lD9VmAmfBTKiaWUPdnglO"  >
<path style="stroke: none; stroke-width: 1; stroke-dasharray: none; stroke-linecap: butt; stroke-dashoffset: 0; stroke-linejoin: miter; stroke-miterlimit: 4; fill: rgb(179,181,179); fill-rule: nonzero; opacity: 1;" vector-effect="non-scaling-stroke"  transform=" translate(-39.95, -28.05)" d="M 21.7 17.9 C 21.7 16.799999999999997 22.599999999999998 15.899999999999999 23.7 15.899999999999999 L 56.2 15.899999999999999 C 57.300000000000004 15.899999999999999 58.2 16.799999999999997 58.2 17.9 C 58.2 19 57.300000000000004 19.9 56.2 19.9 L 23.7 19.9 C 22.6 19.9 21.7 19 21.7 17.9 z M 23.7 30.1 L 56.2 30.1 C 57.300000000000004 30.1 58.2 29.200000000000003 58.2 28.1 C 58.2 27 57.300000000000004 26.1 56.2 26.1 L 23.7 26.1 C 22.599999999999998 26.1 21.7 27 21.7 28.1 C 21.7 29.200000000000003 22.6 30.1 23.7 30.1 z M 23.7 40.2 L 56.2 40.2 C 57.300000000000004 40.2 58.2 39.300000000000004 58.2 38.2 C 58.2 37.1 57.300000000000004 36.2 56.2 36.2 L 23.7 36.2 C 22.599999999999998 36.2 21.7 37.1 21.7 38.2 C 21.7 39.300000000000004 22.6 40.2 23.7 40.2 z" stroke-linecap="round" />
</g>
		<g transform="matrix(1 -0.09 0.09 1 -14.77 -64.38)" style="" id="U_0GEARsqSlYwqjsDZHwr"  >
		<text xml:space="preserve" font-family="Open Sans" font-size="38" font-style="normal" font-weight="700" letter-spacing="0.076" line-height="1" style="stroke: none; stroke-width: 1; stroke-dasharray: none; stroke-linecap: butt; stroke-dashoffset: 0; stroke-linejoin: miter; stroke-miterlimit: 4; fill: rgb(22,181,22); fill-rule: nonzero; opacity: 1; white-space: pre;" ><tspan x="-43.71" y="10.91" >0</tspan><tspan x="-21.91" y="10.91" >0</tspan><tspan x="-0.1" y="10.91" >2</tspan></text>
</g>
</g>
</g>
<g transform="matrix(1 0 0 1 113.36 134.66)" id="94-idBa2wT0pxpr_XQE8U"  >
<filter id="SVGID_649" y="-22%" height="144%" x="-21%" width="142%" >
	<feGaussianBlur in="SourceAlpha" stdDeviation="1"></feGaussianBlur>
	<feOffset dx="0" dy="2" result="oBlur" ></feOffset>
	<feFlood flood-color="rgb(0,0,0)" flood-opacity="1"/>
	<feComposite in2="oBlur" operator="in" />
	<feMerge>
		<feMergeNode></feMergeNode>
		<feMergeNode in="SourceGraphic"></feMergeNode>
	</feMerge>
</filter>
<g style="filter: url(#SVGID_649);" vector-effect="non-scaling-stroke"   >
		<g transform="matrix(2.93 0 0 -2.93 0 0)" id="SsHC0nJRyrqtFh7CY8NwU"  >
<path style="stroke: none; stroke-width: 1; stroke-dasharray: none; stroke-linecap: butt; stroke-dashoffset: 0; stroke-linejoin: miter; stroke-miterlimit: 4; fill: rgb(179,181,179); fill-rule: nonzero; opacity: 1;" vector-effect="non-scaling-stroke"  transform=" translate(-40.05, -40.05)" d="M 69.4 0 L 10.6 0 C 9 0 7.6 1.4 7.6 3.1 L 7.6 77 C 7.6 78.7 9 80.1 10.7 80.1 L 53.8 80.1 C 54.599999999999994 80.1 55.4 79.8 56 79.19999999999999 L 71.6 63.59999999999999 C 72.19999999999999 62.999999999999986 72.5 62.29999999999999 72.5 61.399999999999984 L 72.5 3.1 C 72.4 1.4 71 0 69.4 0 z" stroke-linecap="round" />
</g>
		<g transform="matrix(2.93 0 0 -2.93 -0.15 0.15)" id="VR1LQluRKOxsPHxuNkxip"  >
<path style="stroke: none; stroke-width: 1; stroke-dasharray: none; stroke-linecap: butt; stroke-dashoffset: 0; stroke-linejoin: miter; stroke-miterlimit: 4; fill: rgb(255,255,255); fill-rule: nonzero; opacity: 1;" vector-effect="non-scaling-stroke"  transform=" translate(-40, -40)" d="M 13.7 73.9 L 51.7 73.9 L 51.7 59.3 L 66.3 59.3 L 66.3 6.1 L 13.7 6.1 L 13.7 73.9 z" stroke-linecap="round" />
</g>
		<g transform="matrix(2.93 0 0 -2.93 -0.29 35.16)" id="PcK73JnWM3d0EXtjeWXVW"  >
<path style="stroke: none; stroke-width: 1; stroke-dasharray: none; stroke-linecap: butt; stroke-dashoffset: 0; stroke-linejoin: miter; stroke-miterlimit: 4; fill: rgb(179,181,179); fill-rule: nonzero; opacity: 1;" vector-effect="non-scaling-stroke"  transform=" translate(-39.95, -28.05)" d="M 21.7 17.9 C 21.7 16.799999999999997 22.599999999999998 15.899999999999999 23.7 15.899999999999999 L 56.2 15.899999999999999 C 57.300000000000004 15.899999999999999 58.2 16.799999999999997 58.2 17.9 C 58.2 19 57.300000000000004 19.9 56.2 19.9 L 23.7 19.9 C 22.6 19.9 21.7 19 21.7 17.9 z M 23.7 30.1 L 56.2 30.1 C 57.300000000000004 30.1 58.2 29.200000000000003 58.2 28.1 C 58.2 27 57.300000000000004 26.1 56.2 26.1 L 23.7 26.1 C 22.599999999999998 26.1 21.7 27 21.7 28.1 C 21.7 29.200000000000003 22.6 30.1 23.7 30.1 z M 23.7 40.2 L 56.2 40.2 C 57.300000000000004 40.2 58.2 39.300000000000004 58.2 38.2 C 58.2 37.1 57.300000000000004 36.2 56.2 36.2 L 23.7 36.2 C 22.599999999999998 36.2 21.7 37.1 21.7 38.2 C 21.7 39.300000000000004 22.6 40.2 23.7 40.2 z" stroke-linecap="round" />
</g>
		<g transform="matrix(1 0 0 1 -15.94 -65.9)" style="" id="5lSRXzdUVxj-m_ogfwAxz"  >
		<text xml:space="preserve" font-family="Open Sans" font-size="38" font-style="normal" font-weight="700" letter-spacing="0.076" line-height="1" style="stroke: rgb(0,0,0); stroke-width: 0; stroke-dasharray: none; stroke-linecap: butt; stroke-dashoffset: 0; stroke-linejoin: miter; stroke-miterlimit: 4; fill: rgb(118,100,71); fill-rule: nonzero; opacity: 1; white-space: pre;" ><tspan x="-43.71" y="10.91" >0</tspan><tspan x="-21.91" y="10.91" >0</tspan><tspan x="-0.1" y="10.91" >1</tspan></text>
</g>
</g>
</g>
</svg>