<?xml version="1.0" encoding="UTF-8"?>
<!-- Created with EazyDraw for Mac ( https://www.eazydraw.com/ ) -->

<svg
    version="1.1"
    xmlns:dc="http://purl.org/dc/elements/1.1/"
    xmlns:cc="http://creativecommons.org/ns#"
    xmlns:rdf="http://www.w3.org/1999/02/22-rdf-syntax-ns#"
    xmlns:svg="http://www.w3.org/2000/svg"
    xmlns:xlink="http://www.w3.org/1999/xlink"
    xmlns="http://www.w3.org/2000/svg"
    width="507.917733311"
    height="349.02886015"
    viewBox="0, 0, 507.917733311, 349.02886015"
    preserveAspectRatio="none"
    id="svg2">
   <defs
       id="defs_DB7795FD"/>
   <metadata
       id="metadata7">
      <rdf:RDF>
         <cc:Work
             rdf:about="">
            <dc:format>image/svg+xml</dc:format>
            <dc:type rdf:resource="http://purl.org/dc/dcmitype/StillImage"/>
            <dc:title></dc:title>
         </cc:Work>
      </rdf:RDF>
   </metadata>
   <g
       id="layer_Paper"
       style="fill:#000000;fill-opacity:1;stroke:#000000;stroke-opacity:1;fill-rule:nonzero;stroke-linecap:square;stroke-linejoin:miter;stroke-width:1;stroke-miterlimit:10">
      <g id="99133CDA_transform" transform="matrix(1.424631247468,-0.081974252429,0.081974252429,1.424631247468,-201.548976169,-98.1939442652)">
         <path
             style="fill:#FFD479;stroke:#FFC361;stroke-width:2.809900522232;stroke-miterlimit:9"
             id="3BC0FECA"
             d="M146.606556471,117.887776506 C234.282854506,110.392492785 321.959152542,102.897209063 409.635450577,95.4019253419 C414.617279559,94.9760380438 420.02499584,99.5319797281 420.450883138,104.51380871 C424.930906971,156.919017021 429.410930807,209.324225331 433.890954636,261.729433642
C434.316841934,266.711262625 429.76090025,272.118978905 424.779071268,272.544866203 C337.102773233,280.040149925 249.426475197,287.535433646 161.750177162,295.030717368 C156.768348179,295.456604666 151.360631899,290.900662982 150.934744601,285.918833999
C146.454720768,233.513625689 141.974696935,181.108417378 137.494673102,128.703209067 C137.068785804,123.721380085 141.624727489,118.313663805 146.606556471,117.887776506 z"/>
      </g>
      <g
          id="vectorGradient_D557749A">
         <g
             id="gradientWithClip_D557749A">
            <clipPath
                id="gradientClip_D557749A_clip">
               <path
                   d="M17.8220531063,35.1031394794 C149.013385106,30.9260890416 280.204717106,26.7490386037 411.396049106,22.5719881658 C416.393516666,22.4128719061 421.550100486,27.2512232066 421.709216746,32.2486907668 C424.088294885,106.96994076 426.467373024,181.691190752 428.846451164,256.412440745
C429.005567423,261.409908306 424.167216123,266.566492126 419.169748562,266.725608385 C287.978416563,270.902658823 156.787084563,275.079709261 25.5957525626,279.256759699 C20.5982850023,279.415875959 15.4417011823,274.577524658 15.2825849226,269.580057098
C12.9035067835,194.858807105 10.5244286444,120.137557112 8.145350505256,45.4163071195 C7.986234245495,40.4188395592 12.824585546,35.2622557392 17.8220531063,35.1031394794 z"
                   clip-rule="nonzero"/>
            </clipPath>
            <g
                id="gradientVectors_D557749A"
                clip-path="url(#gradientClip_D557749A_clip)"
                style="fill:none;stroke-linecap:round;stroke-linejoin:bevel;stroke-width:227.674054539">
               <path id="gv_D557749A_0" d="M1059.91337964,65.3502371732 L-622.921577971,65.3502371732" style="stroke:#FFD479"/>
               <path id="gv_D557749A_1" d="M1059.91337964,150.914373932 L-622.921577971,150.914373932" style="stroke:#FFD989"/>
               <path id="gv_D557749A_2" d="M1059.91337964,236.478510692 L-622.921577971,236.478510692" style="stroke:#FFF2D6"/>
            </g>
         </g>
         <path
             style="fill:none;stroke:none"
             id="D557749A"
             d="M17.8220531063,35.1031394794 C149.013385106,30.9260890416 280.204717106,26.7490386037 411.396049106,22.5719881658 C416.393516666,22.4128719061 421.550100486,27.2512232066 421.709216746,32.2486907668 C424.088294885,106.96994076 426.467373024,181.691190752 428.846451164,256.412440745
C429.005567423,261.409908306 424.167216123,266.566492126 419.169748562,266.725608385 C287.978416563,270.902658823 156.787084563,275.079709261 25.5957525626,279.256759699 C20.5982850023,279.415875959 15.4417011823,274.577524658 15.2825849226,269.580057098
C12.9035067835,194.858807105 10.5244286444,120.137557112 8.145350505256,45.4163071195 C7.986234245495,40.4188395592 12.824585546,35.2622557392 17.8220531063,35.1031394794 z"/>
      </g>
      <g
          id="648795FD">
         <path
             style="fill:#FF9300;stroke:none"
             id="FF7795FD"
             d="M96.6304698166,99.833067099 C101.080701977,99.668510952 105.530934137,99.503954805 109.981166297,99.339398658 C110.04614041,98.6536575495 110.064069797,97.9170915081 109.978204616,96.816411943 C108.988023443,81.0311099162 97.8573731821,70.7195287782 82.9280470504,71.2715701767
C61.6390986089,72.0587712041 47.945903057,91.383196935 48.9513528175,118.574431911 C49.6772953086,138.206713535 61.0150745225,150.455522346 77.9289636445,149.830097801 C93.1740157064,149.266381811 104.773691403,138.061737353 107.0998331,121.575598168
C102.634566372,121.740710248 98.169299644,121.905822328 93.7040329158,122.070934408 C91.5280697423,130.404022205 85.625407838,135.668477276 78.13819292,135.945331874 C69.1625557592,136.277223833 63.3881606531,129.131712859 62.9456074767,117.163370051
C62.2701315758,98.8958994492 70.2212096315,85.5133309042 82.3992097993,85.0630252317 C89.8864247173,84.7861706331 95.7713578234,90.0352720738 96.521312363,98.1024747545 C96.6052365214,99.150661588 96.6188236804,99.5181107093 96.6304698166,99.833067099
z"/>
         <path
             style="fill:#FF9300;stroke:none"
             id="408795FD"
             d="M145.425633582,85.6235461627 C145.530875559,85.6196546322 145.636117535,85.6157631017 145.741359512,85.6118715712 C147.014168935,95.6046273337 148.286978358,105.597383096 149.559787781,115.590138859 C143.936859308,115.798057774 138.313930836,116.00597669 132.691002363,116.213895605
z M153.115357914,145.788383866 C157.670832051,145.619936188 162.226306188,145.451488511 166.781780325,145.283040833 C163.051718736,120.137440452 159.321657148,94.9918400701 155.591595559,69.8462396885 C150.239289312,70.0441518112 144.886983066,70.2420639339 139.534676819,70.4399760566
C128.200101163,96.1426212331 116.865525507,121.845266409 105.530949851,147.547911586 C110.38711535,147.36834525 115.243280849,147.188778914 120.099446348,147.009212578 C122.703374549,140.885530629 125.30730275,134.76184868 127.911230951,128.638166731
C135.54879155,128.355752803 143.186352149,128.073338875 150.823912748,127.790924947 z"/>
         <path
             style="fill:#FF9300;stroke:none"
             id="708795FD"
             d="M192.784464118,104.635339003 C193.955545864,96.8124892304 195.12662761,88.9896394574 196.297709357,81.1667896844 C200.116489656,81.0255827204 203.935269956,80.8843757564 207.754050255,80.7431687925 C213.797946635,80.519683755 217.497010866,84.0624188638 217.733815636,90.4665321208
C218.021086996,98.2354563997 212.855612542,103.893168543 204.872256877,104.188368928 z M184.367758919,68.7821840624 C180.68577843,94.201859378 177.003797941,119.621534694 173.321817452,145.041210009 C177.907360725,144.871650466 182.492903998,144.702090922 187.078447271,144.532531379
C188.423933941,135.319034013 189.769420611,126.105536647 191.114907282,116.892039281 C194.963756717,116.749720451 198.812606153,116.607401621 202.661455589,116.465082791 C205.450475149,125.525698602 208.239494708,134.586314413 211.028514268,143.646930223
C215.77943779,143.471255418 220.530361312,143.295580612 225.281284835,143.119905807 C222.200291799,133.491876741 219.119298764,123.863847675 216.038305729,114.23581861 C226.366493543,110.174398078 231.939742064,99.6656732418 231.526304228,88.484721408
C231.062399802,75.9389585522 223.38246316,67.3395381117 210.392596314,67.8198641623 z"/>
         <path
             style="fill:#FF9300;stroke:none"
             id="A08795FD"
             d="M244.581204193,66.5556726818 C240.914258272,91.9747920645 237.247312351,117.393911447 233.58036643,142.81303083 C243.20249002,142.457233755 252.824613609,142.101436681 262.446737199,141.745639606 C283.10423378,140.981787762 296.428835606,121.460733495 295.433090959,94.5319621767
C294.738204831,75.7395642588 283.776323251,65.106355536 267.584093399,65.7050953005 z M256.489343199,79.571858882 C259.360945708,79.4656756925 262.232548217,79.3594925031 265.104150725,79.2533093136 C275.297587903,78.8763867878 281.050631759,85.444477714 281.481538799,97.0978641324
C282.158955723,115.417827466 273.268924149,127.836390086 260.233953599,128.318383935 C256.565518981,128.45403157 252.897084363,128.589679205 249.228649744,128.725326839 z"/>
      </g>
      <g
          id="EC8795FD">
         <path
             style="fill:#945200;stroke:none"
             id="978795FD"
             d="M77.3438921449,224.056485318 C82.7086553549,223.912345782 86.2808280943,218.206923806 86.0636680029,210.124391371 C85.941967076,205.594775996 83.2598538944,202.777124227 79.1690450087,202.887035377 C73.8467469428,203.030033966 70.220616219,208.83606254 70.4366353643,216.876129831
C70.5575756604,221.37743511 73.2389282112,224.166776783 77.3438921449,224.056485318 z M73.0683333549,216.762926023 C72.8956701648,210.336534209 75.5633577124,205.236189704 79.1445848684,205.139969909 C81.6641834209,205.072273768 83.332244,207.053089684 83.4170543334,210.209665398
C83.591238785,216.692677404 80.9782698526,221.720725408 77.3970426967,221.816945203 C74.8349790001,221.88578229 73.1535240037,219.933656786 73.0683333549,216.762926023 z"/>
         <path
             style="fill:#945200;stroke:none"
             id="D78795FD"
             d="M95.887005087,223.558272148 C101.251768297,223.414132613 104.823941036,217.708710637 104.606780945,209.626178202 C104.485080018,205.096562826 101.802966836,202.278911058 97.7121579507,202.388822207 C92.3898598849,202.531820796 88.7637291611,208.33784937 88.9797483063,216.377916661
C89.1006886024,220.87922194 91.7820411533,223.668563613 95.887005087,223.558272148 z M91.6114462969,216.264712853 C91.4387831069,209.83832104 94.1064706545,204.737976535 97.6876978105,204.641756739 C100.207296363,204.574060599 101.875356942,206.554876514 101.960167275,209.711452229
C102.134351727,216.194464235 99.5213827947,221.222512238 95.9401556387,221.318732033 C93.3780919421,221.38756912 91.6966369458,219.435443616 91.6114462969,216.264712853 z"/>
         <path
             style="fill:#945200;stroke:none"
             id="088795FD"
             d="M114.430118029,223.060058979 C119.794881239,222.915919443 123.367053978,217.210497467 123.149893887,209.127965032 C123.02819296,204.598349657 120.346079778,201.780697888 116.255270893,201.890609038 C110.932972827,202.033607627 107.306842103,207.839636201 107.522861248,215.879703492
C107.643801544,220.381008771 110.325154095,223.170350444 114.430118029,223.060058979 z M110.154559239,215.766499684 C109.981896049,209.34010787 112.649583597,204.239763365 116.230810753,204.14354357 C118.750409305,204.075847429 120.418469884,206.056663345 120.503280218,209.213239059
C120.677464669,215.696251065 118.064495737,220.724299069 114.483268581,220.820518864 C111.921204884,220.889355951 110.239749888,218.937230447 110.154559239,215.766499684 z"/>
         <path
             style="fill:#945200;stroke:none"
             id="388795FD"
             d="M132.973230971,222.561845809 C138.337994181,222.417706274 141.91016692,216.712284298 141.693006829,208.629751863 C141.571305902,204.100136487 138.889192721,201.282484719 134.798383835,201.392395868 C129.476085769,201.535394457 125.849955045,207.341423031 126.06597419,215.381490322
C126.186914487,219.882795601 128.868267037,222.672137274 132.973230971,222.561845809 z M128.697672181,215.268286514 C128.525008991,208.841894701 131.192696539,203.741550196 134.773923695,203.6453304 C137.293522247,203.57763426 138.961582826,205.558450175 139.04639316,208.71502589
C139.220577611,215.198037896 136.607608679,220.226085899 133.026381523,220.322305694 C130.464317826,220.391142781 128.78286283,218.439017277 128.697672181,215.268286514 z"/>
         <path
             style="fill:#945200;stroke:none"
             id="688795FD"
             d="M158.834503754,221.86700958 C164.199266964,221.722870044 167.771439703,216.017448068 167.554279612,207.934915633 C167.432578685,203.405300258 164.750465503,200.587648489 160.659656617,200.697559639 C155.337358552,200.840558228 151.711227828,206.646586802 151.927246973,214.686654093
C152.048187269,219.187959372 154.72953982,221.977301045 158.834503754,221.86700958 z M154.558944964,214.573450285 C154.386281774,208.147058471 157.053969321,203.046713966 160.635196477,202.950494171 C163.15479503,202.88279803 164.822855609,204.863613946 164.907665942,208.02018966
C165.081850394,214.503201666 162.468881461,219.53124967 158.887654305,219.627469465 C156.325590609,219.696306552 154.644135612,217.744181048 154.558944964,214.573450285 z"/>
         <path
             style="fill:#945200;stroke:none"
             id="888795FD"
             d="M177.377616696,221.36879641 C182.742379906,221.224656875 186.314552645,215.519234899 186.097392554,207.436702464 C185.975691627,202.907087088 183.293578445,200.08943532 179.202769559,200.199346469 C173.880471494,200.342345058 170.25434077,206.148373632 170.470359915,214.188440923
C170.591300211,218.689746202 173.272652762,221.479087875 177.377616696,221.36879641 z M173.102057906,214.075237115 C172.929394716,207.648845302 175.597082263,202.548500797 179.178309419,202.452281001 C181.697907972,202.384584861 183.365968551,204.365400776 183.450778884,207.521976491
C183.624963336,214.004988497 181.011994403,219.0330365 177.430767247,219.129256295 C174.868703551,219.198093382 173.187248555,217.245967878 173.102057906,214.075237115 z"/>
         <path
             style="fill:#945200;stroke:none"
             id="B88795FD"
             d="M195.920729638,220.870583241 C201.285492848,220.726443705 204.857665587,215.021021729 204.640505496,206.938489294 C204.518804569,202.408873919 201.836691387,199.59122215 197.745882502,199.7011333 C192.423584436,199.844131889 188.797453712,205.650160463 189.013472857,213.690227754
C189.134413153,218.191533033 191.815765704,220.980874706 195.920729638,220.870583241 z M191.645170848,213.577023946 C191.472507658,207.150632132 194.140195205,202.050287627 197.721422361,201.954067832 C200.241020914,201.886371691 201.909081493,203.867187607 201.993891826,207.023763321
C202.168076278,213.506775327 199.555107346,218.534823331 195.97388019,218.631043126 C193.411816493,218.699880213 191.730361497,216.747754709 191.645170848,213.577023946 z"/>
         <path
             style="fill:#945200;stroke:none"
             id="E88795FD"
             d="M214.46384258,220.372370071 C219.82860579,220.228230536 223.400778529,214.52280856 223.183618438,206.440276125 C223.061917511,201.910660749 220.379804329,199.093008981 216.288995444,199.20292013 C210.966697378,199.345918719 207.340566654,205.151947293 207.556585799,213.192014584
C207.677526095,217.693319863 210.358878646,220.482661536 214.46384258,220.372370071 z M210.18828379,213.078810776 C210.0156206,206.652418963 212.683308147,201.552074458 216.264535303,201.455854662 C218.784133856,201.388158522 220.452194435,203.368974437 220.537004768,206.525550152
C220.71118922,213.008562158 218.098220288,218.036610161 214.516993132,218.132829956 C211.954929435,218.201667043 210.273474439,216.249541539 210.18828379,213.078810776 z"/>
         <path
             style="fill:#945200;stroke:none"
             id="198795FD"
             d="M240.325115362,219.677533842 C245.689878572,219.533394306 249.262051312,213.82797233 249.04489122,205.745439895 C248.923190293,201.21582452 246.241077112,198.398172751 242.150268226,198.508083901 C236.82797016,198.65108249 233.201839437,204.457111064 233.417858582,212.497178355
C233.538798878,216.998483634 236.220151429,219.787825307 240.325115362,219.677533842 z M236.049556572,212.383974547 C235.876893382,205.957582733 238.54458093,200.857238228 242.125808086,200.761018433 C244.645406638,200.693322292 246.313467217,202.674138208 246.398277551,205.830713922
C246.572462003,212.313725928 243.95949307,217.341773932 240.378265914,217.437993727 C237.816202218,217.506830814 236.134747221,215.55470531 236.049556572,212.383974547 z"/>
         <path
             style="fill:#945200;stroke:none"
             id="398795FD"
             d="M258.868228304,219.179320672 C264.232991514,219.035181137 267.805164254,213.329759161 267.588004162,205.247226726 C267.466303236,200.71761135 264.784190054,197.899959582 260.693381168,198.009870731 C255.371083102,198.15286932 251.744952379,203.958897894 251.960971524,211.998965185
C252.08191182,216.500270464 254.763264371,219.289612137 258.868228304,219.179320672 z M254.592669514,211.885761377 C254.420006324,205.459369564 257.087693872,200.359025059 260.668921028,200.262805263 C263.18851958,200.195109123 264.85658016,202.175925038 264.941390493,205.332500753
C265.115574945,211.815512759 262.502606012,216.843560762 258.921378856,216.939780557 C256.35931516,217.008617644 254.677860163,215.05649214 254.592669514,211.885761377 z"/>
         <path
             style="fill:#945200;stroke:none"
             id="698795FD"
             d="M277.411341247,218.681107503 C282.776104457,218.536967967 286.348277196,212.831545991 286.131117104,204.749013556 C286.009416178,200.219398181 283.327302996,197.401746412 279.23649411,197.511657562 C273.914196044,197.654656151 270.288065321,203.460684725 270.504084466,211.500752016
C270.625024762,216.002057295 273.306377313,218.791398968 277.411341247,218.681107503 z M273.135782457,211.387548208 C272.963119266,204.961156394 275.630806814,199.860811889 279.21203397,199.764592094 C281.731632522,199.696895953 283.399693102,201.677711869 283.484503435,204.834287583
C283.658687887,211.317299589 281.045718954,216.345347593 277.464491798,216.441567388 C274.902428102,216.510404475 273.220973105,214.558278971 273.135782457,211.387548208 z"/>
         <path
             style="fill:#945200;stroke:none"
             id="998795FD"
             d="M295.954454189,218.182894333 C301.319217399,218.038754798 304.891390138,212.333332822 304.674230047,204.250800387 C304.55252912,199.721185011 301.870415938,196.903533243 297.779607052,197.013444392 C292.457308987,197.156442981 288.831178263,202.962471555 289.047197408,211.002538846
C289.168137704,215.503844125 291.849490255,218.293185798 295.954454189,218.182894333 z M291.678895399,210.889335038 C291.506232209,204.462943225 294.173919756,199.36259872 297.755146912,199.266378924 C300.274745465,199.198682784 301.942806044,201.179498699 302.027616377,204.336074414
C302.201800829,210.81908642 299.588831896,215.847134423 296.00760474,215.943354218 C293.445541044,216.012191305 291.764086047,214.060065801 291.678895399,210.889335038 z"/>
         <path
             style="fill:#945200;stroke:none"
             id="C98795FD"
             d="M321.815726971,217.488058104 C327.180490181,217.343918568 330.752662921,211.638496592 330.535502829,203.555964157 C330.413801902,199.026348782 327.731688721,196.208697013 323.640879835,196.318608163 C318.318581769,196.461606752 314.692451045,202.267635326 314.908470191,210.307702617
C315.029410487,214.809007896 317.710763037,217.598349569 321.815726971,217.488058104 z M317.540168181,210.194498809 C317.367504991,203.768106995 320.035192539,198.66776249 323.616419695,198.571542695 C326.136018247,198.503846554 327.804078826,200.48466247 327.88888916,203.641238184
C328.063073611,210.12425019 325.450104679,215.152298194 321.868877523,215.248517989 C319.306813826,215.317355076 317.62535883,213.365229572 317.540168181,210.194498809 z"/>
         <path
             style="fill:#945200;stroke:none"
             id="E98795FD"
             d="M340.358839913,216.989844934 C345.723603123,216.845705399 349.295775863,211.140283423 349.078615771,203.057750988 C348.956914844,198.528135612 346.274801663,195.710483844 342.183992777,195.820394993 C336.861694711,195.963393582 333.235563987,201.769422156 333.451583133,209.809489447
C333.572523429,214.310794726 336.25387598,217.100136399 340.358839913,216.989844934 z M336.083281123,209.696285639 C335.910617933,203.269893826 338.578305481,198.169549321 342.159532637,198.073329525 C344.679131189,198.005633385 346.347191768,199.9864493 346.432002102,203.143025015
C346.606186553,209.62603702 343.993217621,214.654085024 340.411990465,214.750304819 C337.849926768,214.819141906 336.168471772,212.867016402 336.083281123,209.696285639 z"/>
         <path
             style="fill:#945200;stroke:none"
             id="1A8795FD"
             d="M358.901952855,216.491631765 C364.266716065,216.347492229 367.838888805,210.642070253 367.621728713,202.559537818 C367.500027786,198.029922443 364.817914605,195.212270674 360.727105719,195.322181824 C355.404807653,195.465180413 351.778676929,201.271208987 351.994696075,209.311276278
C352.115636371,213.812581557 354.796988922,216.60192323 358.901952855,216.491631765 z M354.626394065,209.19807247 C354.453730875,202.771680656 357.121418423,197.671336151 360.702645579,197.575116356 C363.222244131,197.507420215 364.89030471,199.488236131 364.975115044,202.644811845
C365.149299495,209.127823851 362.536330563,214.155871855 358.955103407,214.25209165 C356.39303971,214.320928737 354.711584714,212.368803233 354.626394065,209.19807247 z"/>
         <path
             style="fill:#945200;stroke:none"
             id="3A8795FD"
             d="M374.194432225,215.740789668 C375.043735108,215.717970744 375.893037991,215.69515182 376.742340874,215.672332896 C378.007942418,208.824835843 379.273543962,201.97733879 380.539145507,195.129841737 C379.694560973,195.152533889 378.84997644,195.175226041 378.005391906,195.197918193
C375.950152161,196.55634252 373.894912416,197.914766848 371.839672671,199.273191175 C371.658560605,200.264904148 371.47744854,201.256617121 371.296336475,202.248330094 C373.323519667,200.900103097 375.35070286,199.551876099 377.377886053,198.203649101
C377.39675945,198.203142014 377.415632847,198.202634927 377.434506245,198.202127839 z"/>
      </g>
      <path
          style="fill:none;stroke-width:4.174790382385"
          id="9F80C0AA"
          d="M430.101369584,132.117498932 C436.09139427,132.077381511 452.401202369,135.141589794 460.456838334,136.732733307 C532.362641016,150.935516552 483.876908533,256.687218996 446.239064897,187.798162995 C435.710474142,168.527540451 544.320875183,169.530562611 491.117971147,242.024725495
C461.076614044,282.959014224 409.080777849,264.980758836 459.567189897,234.56183487 C482.287649268,220.872370754 494.88841288,294.537489521 414.585744584,307.127264557 C396.53038824,309.957965945 368.235724877,310.078752698 351.831838334,309.219061432"/>
      <path
          style="stroke:#919191"
          id="23C261AA"
          d="M307.956838334,295.127264557 C316.493296668,295.127264557 325.029755001,295.127264557 333.566213334,295.127264557 C338.566213334,295.127264557 343.566213334,300.127264557 343.566213334,305.127264557 C343.566213334,308.174139557 343.566213334,311.221014557 343.566213334,314.267889557
C343.566213334,319.267889557 338.566213334,324.267889557 333.566213334,324.267889557 C325.480275834,324.267889557 317.394338334,324.267889557 309.308400834,324.267889557 C308.560353959,324.267889557 307.812307084,323.519842682 307.812307084,322.771795807
C307.812307084,313.605129141 307.812307084,304.438462474 307.812307084,295.271795807 C307.812307084,295.199530182 307.884572709,295.127264557 307.956838334,295.127264557 z"/>
      <circle
          style="fill:#FFDF7F;stroke:#A9A9A9;stroke-width:0.624655246735;stroke-miterlimit:9"
          id="36C65AAA"
          cx="320.822072709"
          cy="309.284061432"
          r="5.0703125"/>
      <rect
          style="fill:#707070;stroke:#797979;stroke-width:0.876306772232;stroke-miterlimit:9"
          id="07891EAA"
          x="305.152150834"
          y="292.029608307"
          width="3.0107421875"
          height="35.88671875"/>
      <rect
          style="fill:#707070;stroke:#797979;stroke-width:0.876306772232;stroke-miterlimit:9"
          id="A889B0BA"
          x="343.870900834"
          y="305.89386612"
          width="12.1015625"
          height="6.6767578125"/>
      <path
          style="fill:none;stroke:#424242;stroke-width:1.463493704796;stroke-miterlimit:9"
          id="88CA42BA"
          d="M323.940236772,305.79230362 C323.496463304,306.371767207 321.133292107,308.934689151 317.900197709,312.145819245"/>
      <line
          style="fill:#FFFC79;stroke:#FFD50F;stroke-width:2.809900522232;stroke-miterlimit:9"
          id="788B8CBA"
          x1="293.007131303"
          y1="302.379217682"
          x2="302.814748491"
          y2="302.459784089"/>
      <line
          style="fill:#FFFC79;stroke:#FFD50F;stroke-width:2.809900522232;stroke-miterlimit:9"
          id="602440CA"
          x1="293.145803178"
          y1="318.738592682"
          x2="302.953420366"
          y2="318.819159089"/>
      <g
          id="D29795FD">
         <path
             style="fill:#FF9300;stroke:none"
             id="109795FD"
             d="M237.801206612,305.063465997 C239.473121795,305.063465997 240.845236522,304.707207089 241.917591956,303.994678585 C242.989947391,303.282150081 243.526117066,302.373551781 243.526117066,301.268856426 C243.526117066,300.650227027 243.298287779,300.132408847 242.842622371,299.71538635
C242.386956963,299.298363854 241.761711176,299.034621794 240.966866253,298.924152258 C240.980570407,298.879964665 240.994274561,298.835777072 241.007978716,298.791589479 C241.980978535,298.620361699 242.758681514,298.257198548 243.341110983,297.702089132
C243.923540453,297.146979716 244.214750819,296.493838385 244.214750819,295.742645544 C244.214750819,294.941741411 243.836177343,294.302408565 243.079019032,293.824627824 C242.321860722,293.346847083 241.309476448,293.107960295 240.041835838,293.107960295
C238.325390514,293.107960295 236.608945189,293.107960295 234.892499864,293.107960295 C233.840706023,297.093128863 232.788912181,301.07829743 231.737118339,305.063465997 C231.737118339,305.063465997 231.940965596,305.063465997 232.348666224,305.063465997
C232.756366853,305.063465997 233.261702489,305.063465997 233.864688293,305.063465997 C234.467674096,305.063465997 235.070650855,305.063465997 235.673636659,305.063465997 C236.276622462,305.063465997 236.781958098,305.063465997 237.189658727,305.063465997
C237.597359355,305.063465997 237.801206612,305.063465997 237.801206612,305.063465997 z M236.423939106,294.42530292 C237.393508022,294.42530292 238.363076938,294.42530292 239.332645854,294.42530292 C240.333054119,294.42530292 241.076497055,294.559245222 241.562996964,294.827133846
C242.049496874,295.095022469 242.29274318,295.502372771 242.29274318,296.049196972 C242.29274318,296.700967231 241.939864736,297.232593896 241.234097261,297.644092916 C240.528329787,298.055591936 239.610160631,298.26133836 238.479562249,298.26133836
C237.458602755,298.26133836 236.43764326,298.26133836 235.416683766,298.26133836 C235.416683766,298.26133836 235.46807383,298.068019572 235.570855502,297.681376198 C235.673637173,297.294732824 235.790121319,296.848718764 235.920311436,296.34332064
C236.050501553,295.837922515 236.166985699,295.391908455 236.26976737,295.005265081 C236.372549041,294.618621707 236.423939106,294.42530292 236.423939106,294.42530292 z M233.96746945,303.746123373 C234.337481616,302.345929012 234.707493781,300.94573465 235.077505947,299.545540289
C236.225228869,299.545540289 237.37295179,299.545540289 238.520674712,299.545540289 C239.527935089,299.545540289 240.286795044,299.700195319 240.797277343,300.009510018 C241.307759643,300.318824717 241.562996964,300.78002811 241.562996964,301.393134032
C241.562996964,302.061474722 241.198127505,302.620718356 240.46837764,303.070881714 C239.738627776,303.521045071 238.829023631,303.746123373 237.739537918,303.746123373 C237.739537918,303.746123373 237.549394678,303.746123373 237.169102495,303.746123373
C236.788810312,303.746123373 236.350281761,303.746123373 235.853503684,303.746123373 C235.356725607,303.746123373 234.918197055,303.746123373 234.537904872,303.746123373 C234.157612689,303.746123373 233.96746945,303.746123373 233.96746945,303.746123373
z"/>
         <path
             style="fill:#FF9300;stroke:none"
             id="509795FD"
             d="M252.8997586,295.063261297 C252.954575217,295.063261297 253.009391834,295.063261297 253.064208451,295.063261297 C253.389682115,296.833526752 253.71515578,298.603792207 254.040629444,300.374057662 C252.4201132,300.374057662 250.799596955,300.374057662 249.17908071,300.374057662
C249.17908071,300.374057662 249.304129868,300.195928208 249.554231934,299.839663956 C249.804334,299.483399704 250.11438739,299.040147342 250.484401406,298.509893572 C250.854415422,297.979639801 251.224423888,297.450774833 251.594437904,296.923282801
C251.964451919,296.395790769 252.27450531,295.953919255 252.524607376,295.597655003 C252.774709442,295.241390751 252.8997586,295.063261297 252.8997586,295.063261297 z M254.84232247,305.063465997 C255.445305259,305.063465997 256.048288047,305.063465997 256.651270836,305.063465997
C255.876986119,301.07829743 255.102701402,297.093128863 254.328416684,293.107960295 C253.756268243,293.107960295 253.184119801,293.107960295 252.61197136,293.107960295 C249.716968766,297.093128863 246.821966173,301.07829743 243.926963579,305.063465997
C244.588189024,305.063465997 245.249414468,305.063465997 245.910639912,305.063465997 C246.705480861,303.922873746 247.50032181,302.782281495 248.295162759,301.641689244 C250.278839092,301.641689244 252.262515425,301.641689244 254.246191758,301.641689244
C254.246191758,301.641689244 254.277025797,301.814295304 254.3386948,302.159512603 C254.400363803,302.504729901 254.468883889,302.902414264 254.544257114,303.352577621 C254.61963034,303.802740978 254.688150426,304.20042534 254.749819429,304.545642639
C254.811488431,304.890859937 254.84232247,305.063465997 254.84232247,305.063465997 z"/>
         <path
             style="fill:#FF9300;stroke:none"
             id="709795FD"
             d="M260.618623503,305.063465997 C261.454576914,301.887482732 262.290530326,298.711499466 263.126483738,295.5355162 C263.181300355,295.5355162 263.236116972,295.5355162 263.290933589,295.5355162 C265.117012148,298.711499466 266.943090707,301.887482732 268.769169266,305.063465997
C269.38243017,305.063465997 269.995691075,305.063465997 270.608951979,305.063465997 C271.660745821,301.07829743 272.712539663,297.093128863 273.764333504,293.107960295 C273.140794484,293.107960295 272.517255464,293.107960295 271.893716444,293.107960295
C271.054336994,296.292228735 270.214957543,299.476497174 269.375578093,302.660765614 C269.320761476,302.660765614 269.265944859,302.660765614 269.211128242,302.660765614 C267.381623644,299.476497174 265.552119047,296.292228735 263.722614449,293.107960295
C263.116205622,293.107960295 262.509796795,293.107960295 261.903387967,293.107960295 C260.851594126,297.093128863 259.799800284,301.07829743 258.748006442,305.063465997 C258.748006442,305.063465997 258.842221561,305.063465997 259.030654625,305.063465997
C259.219087688,305.063465997 259.436638962,305.063465997 259.683314973,305.063465997 C259.929990983,305.063465997 260.147542257,305.063465997 260.335975321,305.063465997 C260.524408384,305.063465997 260.618623503,305.063465997 260.618623503,305.063465997
z"/>
         <path
             style="fill:#FF9300;stroke:none"
             id="A09795FD"
             d="M275.71717549,305.063465997 C276.083761618,303.70193578 276.450347745,302.340405563 276.816933872,300.978875345 C277.601496705,300.415483531 278.386059538,299.852091717 279.170622371,299.288699903 C280.475943067,301.213621934 281.781263763,303.138543966 283.086584459,305.063465997
C283.806052559,305.063465997 284.525520659,305.063465997 285.24498876,305.063465997 C283.706697441,302.831992538 282.168406122,300.600519078 280.630114803,298.369045618 C283.03519388,296.615350511 285.440272958,294.861655403 287.845352036,293.107960295
C287.040232971,293.107960295 286.235113907,293.107960295 285.429994842,293.107960295 C282.785093065,295.043929225 280.140191287,296.979898155 277.495289509,298.915867085 C277.440472892,298.915867085 277.385656275,298.915867085 277.330839658,298.915867085
C277.841319405,296.979898155 278.351799152,295.043929225 278.8622789,293.107960295 C278.249017995,293.107960295 277.635757091,293.107960295 277.022496186,293.107960295 C275.970702345,297.093128863 274.918908503,301.07829743 273.867114661,305.063465997
C273.867114661,305.063465997 273.959616778,305.063465997 274.144623786,305.063465997 C274.329630794,305.063465997 274.545469065,305.063465997 274.792145076,305.063465997 C275.038821086,305.063465997 275.254659358,305.063465997 275.439666366,305.063465997
C275.624673374,305.063465997 275.71717549,305.063465997 275.71717549,305.063465997 z"/>
         <path
             style="fill:#212121;stroke:none"
             id="D09795FD"
             d="M249.908826926,312.904002077 C248.863885162,316.889170644 247.818943397,320.874339211 246.774001633,324.859507778 C248.798790429,324.859507778 250.823579225,324.859507778 252.848368021,324.859507778 C254.287311416,324.859507778 255.58576705,324.566767901 256.743773878,323.981279362
C257.901780705,323.395790824 258.819949861,322.594898705 259.49830889,321.578578979 C260.176667919,320.562259252 260.515842346,319.413393316 260.515842346,318.131946704 C260.515842346,316.508044533 259.955690641,315.230759688 258.835370426,314.300053851
C257.715050211,313.369348015 256.120245204,312.904002077 254.05090756,312.904002077 C254.05090756,312.904002077 253.841921297,312.904002077 253.423942501,312.904002077 C253.005963705,312.904002077 252.5246101,312.904002077 251.979867243,312.904002077
C251.435124386,312.904002077 250.95377078,312.904002077 250.535791985,312.904002077 C250.117813189,312.904002077 249.908826926,312.904002077 249.908826926,312.904002077 z M251.450544284,314.229629874 C252.269367502,314.229629874 253.088190721,314.229629874 253.90701394,314.229629874
C255.387070003,314.229629874 256.539920454,314.57898454 257.365599878,315.277704352 C258.191279303,315.976424164 258.604112822,316.95268404 258.604112822,318.206513268 C258.604112822,319.222832995 258.357440512,320.132812143 257.864088491,320.936478014
C257.37073647,321.740143885 256.69581362,322.373953338 255.839299695,322.837925387 C254.982785769,323.301897436 254.009800544,323.533879981 252.920314831,323.533879981 C251.611568096,323.533879981 250.302821362,323.533879981 248.994074627,323.533879981
C248.994074627,323.533879981 249.054029703,323.310182527 249.173941652,322.862780908 C249.293853602,322.415379289 249.446310794,321.838184624 249.631317802,321.131179597 C249.81632481,320.42417457 250.013320058,319.674373845 250.222309455,318.881754928
C250.431298853,318.08913601 250.628294101,317.339335285 250.813301109,316.632330258 C250.998308117,315.925325231 251.150765309,315.348130566 251.270677259,314.900728947 C251.390589208,314.453327328 251.450544284,314.229629874 251.450544284,314.229629874
z"/>
         <path
             style="fill:#212121;stroke:none"
             id="119795FD"
             d="M271.081745302,323.517309633 C268.642405839,323.517309633 266.203066375,323.517309633 263.763726912,323.517309633 C264.126887001,322.147494242 264.490047089,320.777678851 264.853207178,319.40786346 C267.162357176,319.40786346 269.471507173,319.40786346 271.780657171,319.40786346
C271.897142482,318.965987527 272.013627794,318.524111595 272.130113105,318.082235662 C269.817537069,318.082235662 267.504961033,318.082235662 265.192384997,318.082235662 C265.534988854,316.803557182 265.877592711,315.524878702 266.220196568,314.246200222
C268.656109993,314.246200222 271.092023418,314.246200222 273.527936843,314.246200222 C273.647848193,313.79880084 273.767759543,313.351401458 273.887670893,312.904002077 C270.817940332,312.904002077 267.748209771,312.904002077 264.678479211,312.904002077
C263.626685369,316.889170644 262.574891527,320.874339211 261.523097686,324.859507778 C264.592828246,324.859507778 267.662558807,324.859507778 270.732289368,324.859507778 C270.732289368,324.859507778 270.749419389,324.791846203 270.783679946,324.656521022
C270.817940503,324.521195841 270.859052555,324.365159963 270.907017335,324.188408706 C270.954982115,324.011657449 270.996094167,323.855621571 271.030354724,323.72029639 C271.064615281,323.584971209 271.081745302,323.517309633 271.081745302,323.517309633
z"/>
         <path
             style="fill:#212121;stroke:none"
             id="319795FD"
             d="M279.684528157,324.859507778 C282.55554848,320.874339211 285.426568804,316.889170644 288.297589127,312.904002077 C287.615807451,312.904002077 286.934025776,312.904002077 286.2522441,312.904002077 C283.953372218,316.22911847 281.654500336,319.554234862 279.355628454,322.879351255
C279.300811837,322.879351255 279.24599522,322.879351255 279.191178603,322.879351255 C278.553935428,319.554234862 277.916692254,316.22911847 277.279449079,312.904002077 C276.697022522,312.904002077 276.114595965,312.904002077 275.532169407,312.904002077
C276.306454125,316.889170644 277.080738842,320.874339211 277.855023559,324.859507778 C277.855023559,324.859507778 277.947525676,324.859507778 278.132532684,324.859507778 C278.317539692,324.859507778 278.529951959,324.859507778 278.769775858,324.859507778
C279.009599757,324.859507778 279.222012025,324.859507778 279.407019033,324.859507778 C279.59202604,324.859507778 279.684528157,324.859507778 279.684528157,324.859507778 z"/>
      </g>
   </g>
</svg>
