<?xml version="1.0" encoding="UTF-8" standalone="no"?>
<!DOCTYPE svg PUBLIC "-//W3C//DTD SVG 1.1//EN" "http://www.w3.org/Graphics/SVG/1.1/DTD/svg11.dtd">
<!-- Created with Vectornator (http://vectornator.io/) -->
<svg height="100%" stroke-miterlimit="10" style="fill-rule:nonzero;clip-rule:evenodd;stroke-linecap:round;stroke-linejoin:round;" version="1.1" viewBox="0 0 512 150" width="100%" xml:space="preserve" xmlns="http://www.w3.org/2000/svg" xmlns:xlink="http://www.w3.org/1999/xlink">
<defs>
<clipPath id="TextBounds">
<rect height="173" width="493.828" x="37.075" y="-24.2174"/>
</clipPath>
<clipPath id="TextBounds_2">
<rect height="173" width="493.828" x="13.0332" y="-23.056"/>
</clipPath>
<clipPath id="TextBounds_3">
<rect height="173" width="493.828" x="24.8898" y="-23.3479"/>
</clipPath>
<clipPath id="TextBounds_4">
<rect height="1" width="0" x="62.9227" y="170.781"/>
</clipPath>
</defs>
<clipPath id="ArtboardFrame">
<rect height="150" width="512" x="0" y="0"/>
</clipPath>
<g clip-path="url(#ArtboardFrame)" id="Слой-1">
<path d="M371.159 371.617L371.159 371.617C371.171 371.617 371.182 371.627 371.182 371.64L371.182 371.752C371.182 371.765 371.171 371.775 371.159 371.775L371.159 371.775C371.146 371.775 371.136 371.765 371.136 371.752L371.136 371.64C371.136 371.627 371.146 371.617 371.159 371.617Z" fill="#000000" fill-rule="nonzero" opacity="1" stroke="none"/>
<g fill="#dcd35b" opacity="1" stroke="none">
<path clip-path="url(#TextBounds)" d="M47.868 22.4525L87.9588 22.4525C95.8618 22.4525 102.246 23.5248 107.111 25.6693C111.976 27.8138 115.997 30.8916 119.174 34.9027C122.351 38.9138 124.654 43.5801 126.084 48.9017C127.513 54.2233 128.228 59.8627 128.228 65.8197C128.228 75.1524 127.166 82.3902 125.041 87.5331C122.917 92.676 119.968 96.9849 116.195 100.46C112.422 103.935 108.372 106.248 104.043 107.4C98.1254 108.988 92.7641 109.783 87.9588 109.783L47.868 109.783L47.868 22.4525ZM74.8533 42.2298L74.8533 89.9457L81.4656 89.9457C87.1049 89.9457 91.116 89.3202 93.4988 88.0692C95.8816 86.8182 97.7482 84.634 99.0984 81.5165C100.449 78.399 101.124 73.3454 101.124 66.3558C101.124 57.1026 99.6147 50.7683 96.5965 47.3529C93.5782 43.9375 88.5743 42.2298 81.5847 42.2298L74.8533 42.2298Z"/>
<path clip-path="url(#TextBounds)" d="M141.751 22.4525L166.055 22.4525L166.055 39.1322L141.751 39.1322L141.751 22.4525ZM141.751 46.5189L166.055 46.5189L166.055 107.876C166.055 115.7 165.49 121.24 164.358 124.496C163.226 127.753 161.131 130.394 158.073 132.419C155.015 134.445 150.647 135.457 144.968 135.457C140.281 135.457 134.463 134.762 127.513 133.372L131.147 115.74C133.093 116.137 134.523 116.335 135.436 116.335C137.501 116.335 139.07 115.63 140.142 114.221C141.215 112.811 141.751 110.001 141.751 105.791L141.751 46.5189Z"/>
<path clip-path="url(#TextBounds)" d="M203.525 67.0111L180.352 64.5687C181.226 60.5179 182.487 57.3309 184.135 55.0077C185.783 52.6844 188.156 50.669 191.254 48.9613C193.478 47.7302 196.536 46.777 200.428 46.1019C204.319 45.4268 208.529 45.0892 213.056 45.0892C220.324 45.0892 226.162 45.4963 230.57 46.3104C234.978 47.1245 238.652 48.8223 241.591 51.4037C243.656 53.1908 245.284 55.7225 246.475 58.9989C247.667 62.2753 248.262 65.4027 248.262 68.3812L248.262 96.3197C248.262 99.2982 248.451 101.631 248.828 103.319C249.206 105.007 250.03 107.161 251.301 109.783L228.545 109.783C227.631 108.154 227.036 106.913 226.758 106.059C226.48 105.206 226.202 103.865 225.924 102.038C222.747 105.096 219.589 107.281 216.452 108.591C212.163 110.339 207.179 111.212 201.5 111.212C193.954 111.212 188.226 109.465 184.314 105.97C180.402 102.475 178.446 98.1664 178.446 93.0433C178.446 88.238 179.856 84.2865 182.676 81.1888C185.495 78.0912 190.698 75.7878 198.283 74.2787C207.377 72.4519 213.275 71.1711 215.975 70.4364C218.676 69.7017 221.535 68.7386 224.553 67.5472C224.553 64.5687 223.938 62.4838 222.707 61.2923C221.476 60.1009 219.311 59.5052 216.214 59.5052C212.242 59.5052 209.264 60.1407 207.278 61.4115C205.729 62.4043 204.478 64.2709 203.525 67.0111ZM224.553 79.7591C221.218 80.9506 217.743 82.003 214.129 82.9164C209.204 84.2269 206.087 85.5176 204.776 86.7884C203.426 88.099 202.751 89.5882 202.751 91.2562C202.751 93.1625 203.416 94.7212 204.746 95.9325C206.077 97.1437 208.033 97.7494 210.614 97.7494C213.315 97.7494 215.826 97.0941 218.15 95.7836C220.473 94.473 222.121 92.8745 223.094 90.9881C224.067 89.1018 224.553 86.6494 224.553 83.6312L224.553 79.7591Z"/>
<path clip-path="url(#TextBounds)" d="M262.798 46.5189L285.375 46.5189L285.375 56.8246C288.75 52.6149 292.166 49.6066 295.621 47.7997C299.076 45.9927 303.286 45.0892 308.25 45.0892C314.961 45.0892 320.213 47.0848 324.006 51.076C327.799 55.0673 329.695 61.2328 329.695 69.5726L329.695 109.783L305.331 109.783L305.331 74.9935C305.331 71.0222 304.596 68.2124 303.127 66.5643C301.657 64.9162 299.592 64.0922 296.931 64.0922C293.993 64.0922 291.61 65.2041 289.783 67.4281C287.956 69.652 287.043 73.6433 287.043 79.4017L287.043 109.783L262.798 109.783L262.798 46.5189Z"/>
<path clip-path="url(#TextBounds)" d="M388.193 46.5189L410.889 46.5189L410.889 106.268L410.949 109.068C410.949 113.039 410.105 116.822 408.417 120.416C406.729 124.01 404.486 126.919 401.686 129.143C398.886 131.367 395.332 132.975 391.023 133.968C386.714 134.961 381.779 135.457 376.22 135.457C363.511 135.457 354.784 133.551 350.038 129.739C345.293 125.926 342.92 120.823 342.92 114.429C342.92 113.635 342.959 112.563 343.039 111.212L366.569 113.893C367.165 116.077 368.078 117.586 369.309 118.42C371.096 119.651 373.34 120.267 376.041 120.267C379.536 120.267 382.147 119.334 383.874 117.467C385.602 115.601 386.466 112.344 386.466 107.698L386.466 98.1068C384.083 100.926 381.7 102.972 379.317 104.243C375.584 106.228 371.553 107.221 367.224 107.221C358.765 107.221 351.935 103.528 346.732 96.141C343.039 90.8988 341.192 83.9688 341.192 75.3509C341.192 65.502 343.575 57.9961 348.341 52.8334C353.106 47.6706 359.341 45.0892 367.046 45.0892C371.97 45.0892 376.031 45.9232 379.228 47.5912C382.425 49.2591 385.413 52.0192 388.193 55.8714L388.193 46.5189ZM365.378 77.1976C365.378 81.7647 366.351 85.1503 368.297 87.3544C370.243 89.5585 372.804 90.6605 375.981 90.6605C378.999 90.6605 381.531 89.5187 383.576 87.2352C385.622 84.9517 386.644 81.5065 386.644 76.8998C386.644 72.293 385.572 68.7684 383.428 66.326C381.283 63.8837 378.662 62.6625 375.564 62.6625C372.467 62.6625 369.994 63.7844 368.148 66.0282C366.301 68.272 365.378 71.9951 365.378 77.1976Z"/>
<path clip-path="url(#TextBounds)" d="M422.565 78.3295C422.565 68.6791 425.822 60.7264 432.335 54.4715C438.848 48.2167 447.644 45.0892 458.724 45.0892C471.393 45.0892 480.964 48.7627 487.437 56.1097C492.64 62.027 495.241 69.3145 495.241 77.972C495.241 87.7019 492.014 95.6743 485.561 101.89C479.107 108.105 470.182 111.212 458.784 111.212C448.617 111.212 440.397 108.631 434.122 103.468C426.417 97.0742 422.565 88.6947 422.565 78.3295ZM446.87 78.2699C446.87 83.9092 448.012 88.0791 450.295 90.7797C452.579 93.4802 455.448 94.8304 458.903 94.8304C462.398 94.8304 465.267 93.5 467.511 90.8392C469.755 88.1784 470.877 83.9092 470.877 78.0316C470.877 72.5511 469.745 68.4706 467.481 65.7899C465.218 63.1092 462.418 61.7689 459.082 61.7689C455.547 61.7689 452.628 63.1291 450.325 65.8495C448.022 68.5699 446.87 72.71 446.87 78.2699Z"/>
</g>
<g fill="#727272" opacity="1" stroke="none">
<path clip-path="url(#TextBounds_2)" d="M23.8262 23.6139L63.917 23.6139C71.82 23.6139 78.2039 24.6862 83.0688 26.8307C87.9337 28.9753 91.9547 32.0531 95.1318 36.0641C98.3089 40.0752 100.612 44.7415 102.042 50.0632C103.472 55.3848 104.187 61.0241 104.187 66.9811C104.187 76.3138 103.124 83.5516 100.999 88.6945C98.8748 93.8374 95.9261 98.1463 92.1533 101.621C88.3805 105.096 84.3297 107.41 80.001 108.561C74.0836 110.15 68.7223 110.944 63.917 110.944L23.8262 110.944L23.8262 23.6139ZM50.8115 43.3913L50.8115 91.1071L57.4238 91.1071C63.0631 91.1071 67.0742 90.4816 69.457 89.2306C71.8398 87.9797 73.7064 85.7954 75.0566 82.6779C76.4069 79.5604 77.082 74.5068 77.082 67.5173C77.082 58.264 75.5729 51.9297 72.5547 48.5143C69.5364 45.099 64.5325 43.3913 57.5429 43.3913L50.8115 43.3913Z"/>
<path clip-path="url(#TextBounds_2)" d="M117.709 23.6139L142.014 23.6139L142.014 40.2936L117.709 40.2936L117.709 23.6139ZM117.709 47.6803L142.014 47.6803L142.014 109.038C142.014 116.861 141.448 122.401 140.316 125.658C139.184 128.914 137.089 131.555 134.031 133.581C130.973 135.606 126.605 136.619 120.926 136.619C116.24 136.619 110.422 135.924 103.472 134.534L107.105 116.901C109.051 117.298 110.481 117.497 111.395 117.497C113.46 117.497 115.028 116.792 116.101 115.382C117.173 113.972 117.709 111.162 117.709 106.953L117.709 47.6803Z"/>
<path clip-path="url(#TextBounds_2)" d="M179.483 68.1725L156.311 65.7302C157.184 61.6794 158.445 58.4924 160.093 56.1691C161.741 53.8459 164.114 51.8304 167.212 50.1227C169.436 48.8916 172.494 47.9385 176.386 47.2634C180.278 46.5882 184.487 46.2507 189.015 46.2507C196.282 46.2507 202.12 46.6577 206.528 47.4718C210.937 48.286 214.61 49.9837 217.549 52.5651C219.614 54.3522 221.242 56.884 222.434 60.1603C223.625 63.4367 224.221 66.5641 224.221 69.5427L224.221 97.4811C224.221 100.46 224.409 102.793 224.787 104.481C225.164 106.168 225.988 108.323 227.259 110.944L204.503 110.944C203.589 109.316 202.994 108.075 202.716 107.221C202.438 106.367 202.16 105.027 201.882 103.2C198.705 106.258 195.548 108.442 192.41 109.753C188.121 111.5 183.137 112.374 177.458 112.374C169.912 112.374 164.184 110.626 160.272 107.132C156.36 103.637 154.404 99.3278 154.404 94.2048C154.404 89.3994 155.814 85.4479 158.634 82.3503C161.453 79.2526 166.656 76.9492 174.241 75.4401C183.336 73.6133 189.233 72.3325 191.934 71.5978C194.634 70.8631 197.493 69.9001 200.512 68.7087C200.512 65.7302 199.896 63.6452 198.665 62.4538C197.434 61.2624 195.27 60.6667 192.172 60.6667C188.201 60.6667 185.222 61.3021 183.236 62.5729C181.687 63.5658 180.437 65.4323 179.483 68.1725ZM200.512 80.9206C197.176 82.112 193.701 83.1644 190.087 84.0778C185.162 85.3884 182.045 86.679 180.734 87.9499C179.384 89.2604 178.709 90.7497 178.709 92.4177C178.709 94.3239 179.374 95.8827 180.705 97.0939C182.035 98.3052 183.991 98.9108 186.572 98.9108C189.273 98.9108 191.785 98.2555 194.108 96.945C196.431 95.6344 198.079 94.036 199.052 92.1496C200.025 90.2632 200.512 87.8109 200.512 84.7927L200.512 80.9206Z"/>
<path clip-path="url(#TextBounds_2)" d="M238.756 47.6803L261.333 47.6803L261.333 57.986C264.709 53.7764 268.124 50.7681 271.579 48.9611C275.034 47.1541 279.244 46.2507 284.208 46.2507C290.92 46.2507 296.172 48.2463 299.964 52.2375C303.757 56.2287 305.653 62.3942 305.653 70.7341L305.653 110.944L281.289 110.944L281.289 76.155C281.289 72.1836 280.554 69.3739 279.085 67.7258C277.616 66.0776 275.55 65.2536 272.89 65.2536C269.951 65.2536 267.568 66.3656 265.741 68.5895C263.914 70.8135 263.001 74.8047 263.001 80.5632L263.001 110.944L238.756 110.944L238.756 47.6803Z"/>
<path clip-path="url(#TextBounds_2)" d="M364.151 47.6803L386.848 47.6803L386.848 107.429L386.907 110.229C386.907 114.201 386.063 117.983 384.375 121.577C382.688 125.171 380.444 128.08 377.644 130.304C374.844 132.528 371.29 134.137 366.981 135.13C362.672 136.122 357.738 136.619 352.178 136.619C339.469 136.619 330.742 134.713 325.997 130.9C321.251 127.088 318.878 121.984 318.878 115.591C318.878 114.796 318.918 113.724 318.997 112.374L342.527 115.054C343.123 117.239 344.036 118.748 345.268 119.582C347.055 120.813 349.298 121.428 351.999 121.428C355.494 121.428 358.105 120.495 359.832 118.629C361.56 116.762 362.424 113.506 362.424 108.859L362.424 99.2682C360.041 102.088 357.658 104.133 355.275 105.404C351.542 107.39 347.511 108.382 343.183 108.382C334.724 108.382 327.893 104.689 322.69 97.3024C318.997 92.0602 317.15 85.1302 317.15 76.5124C317.15 66.6634 319.533 59.1576 324.299 53.9948C329.064 48.832 335.299 46.2507 343.004 46.2507C347.928 46.2507 351.989 47.0846 355.186 48.7526C358.383 50.4206 361.371 53.1807 364.151 57.0329L364.151 47.6803ZM341.336 78.3591C341.336 82.9261 342.309 86.3117 344.255 88.5158C346.201 90.7199 348.762 91.8219 351.939 91.8219C354.958 91.8219 357.489 90.6802 359.535 88.3967C361.58 86.1131 362.603 82.668 362.603 78.0612C362.603 73.4544 361.53 69.9299 359.386 67.4875C357.241 65.0451 354.62 63.8239 351.522 63.8239C348.425 63.8239 345.953 64.9458 344.106 67.1896C342.259 69.4334 341.336 73.1566 341.336 78.3591Z"/>
<path clip-path="url(#TextBounds_2)" d="M398.523 79.4909C398.523 69.8405 401.78 61.8879 408.293 55.633C414.806 49.3781 423.603 46.2507 434.683 46.2507C447.351 46.2507 456.922 49.9242 463.395 57.2712C468.598 63.1885 471.199 70.4759 471.199 79.1335C471.199 88.8633 467.972 96.8358 461.519 103.051C455.066 109.266 446.14 112.374 434.742 112.374C424.576 112.374 416.355 109.792 410.08 104.63C402.376 98.2357 398.523 89.8561 398.523 79.4909ZM422.828 79.4313C422.828 85.0706 423.97 89.2406 426.253 91.9411C428.537 94.6416 431.406 95.9919 434.861 95.9919C438.356 95.9919 441.225 94.6615 443.469 92.0007C445.713 89.3399 446.835 85.0706 446.835 79.193C446.835 73.7126 445.703 69.632 443.439 66.9513C441.176 64.2707 438.376 62.9303 435.04 62.9303C431.506 62.9303 428.587 64.2905 426.283 67.0109C423.98 69.7313 422.828 73.8714 422.828 79.4313Z"/>
</g>
<g fill="#8d8bb3" opacity="1" stroke="none">
<path clip-path="url(#TextBounds_3)" d="M35.6828 23.322L75.7736 23.322C83.6766 23.322 90.0606 24.3943 94.9255 26.5388C99.7904 28.6834 103.811 31.7612 106.988 35.7722C110.166 39.7833 112.469 44.4497 113.899 49.7713C115.328 55.0929 116.043 60.7322 116.043 66.6892C116.043 76.0219 114.981 83.2597 112.856 88.4026C110.731 93.5455 107.783 97.8544 104.01 101.329C100.237 104.804 96.1864 107.118 91.8576 108.269C85.9403 109.858 80.579 110.652 75.7736 110.652L35.6828 110.652L35.6828 23.322ZM62.6681 43.0994L62.6681 90.8152L69.2804 90.8152C74.9198 90.8152 78.9308 90.1897 81.3137 88.9387C83.6965 87.6878 85.563 85.5035 86.9133 82.386C88.2635 79.2685 88.9387 74.215 88.9387 67.2254C88.9387 57.9721 87.4295 51.6378 84.4113 48.2224C81.3931 44.8071 76.3892 43.0994 69.3996 43.0994L62.6681 43.0994Z"/>
<path clip-path="url(#TextBounds_3)" d="M129.566 23.322L153.87 23.322L153.87 40.0017L129.566 40.0017L129.566 23.322ZM129.566 47.3885L153.87 47.3885L153.87 108.746C153.87 116.569 153.304 122.109 152.173 125.366C151.041 128.623 148.946 131.263 145.888 133.289C142.83 135.314 138.461 136.327 132.782 136.327C128.096 136.327 122.278 135.632 115.328 134.242L118.962 116.609C120.908 117.006 122.338 117.205 123.251 117.205C125.316 117.205 126.885 116.5 127.957 115.09C129.029 113.68 129.566 110.871 129.566 106.661L129.566 47.3885Z"/>
<path clip-path="url(#TextBounds_3)" d="M191.34 67.8806L168.167 65.4383C169.041 61.3875 170.302 58.2005 171.95 55.8772C173.598 53.554 175.971 51.5385 179.069 49.8308C181.292 48.5997 184.35 47.6466 188.242 46.9715C192.134 46.2963 196.344 45.9588 200.871 45.9588C208.139 45.9588 213.977 46.3658 218.385 47.18C222.793 47.9941 226.467 49.6918 229.405 52.2732C231.471 54.0603 233.099 56.5921 234.29 59.8684C235.482 63.1448 236.077 66.2722 236.077 69.2508L236.077 97.1892C236.077 100.168 236.266 102.501 236.643 104.189C237.021 105.877 237.845 108.031 239.115 110.652L216.36 110.652C215.446 109.024 214.85 107.783 214.572 106.929C214.294 106.075 214.016 104.735 213.738 102.908C210.561 105.966 207.404 108.15 204.267 109.461C199.978 111.208 194.994 112.082 189.315 112.082C181.769 112.082 176.04 110.334 172.129 106.84C168.217 103.345 166.261 99.0359 166.261 93.9129C166.261 89.1075 167.671 85.156 170.49 82.0584C173.31 78.9607 178.513 76.6573 186.098 75.1482C195.192 73.3214 201.09 72.0406 203.79 71.3059C206.491 70.5712 209.35 69.6082 212.368 68.4168C212.368 65.4383 211.753 63.3533 210.522 62.1619C209.291 60.9705 207.126 60.3748 204.028 60.3748C200.057 60.3748 197.079 61.0102 195.093 62.281C193.544 63.2739 192.293 65.1404 191.34 67.8806ZM212.368 80.6287C209.032 81.8201 205.557 82.8725 201.944 83.7859C197.019 85.0965 193.902 86.3872 192.591 87.658C191.241 88.9685 190.566 90.4578 190.566 92.1258C190.566 94.032 191.231 95.5908 192.561 96.802C193.892 98.0133 195.848 98.6189 198.429 98.6189C201.129 98.6189 203.641 97.9637 205.965 96.6531C208.288 95.3426 209.936 93.7441 210.909 91.8577C211.882 89.9713 212.368 87.519 212.368 84.5008L212.368 80.6287Z"/>
<path clip-path="url(#TextBounds_3)" d="M250.612 47.3885L273.19 47.3885L273.19 57.6941C276.565 53.4845 279.981 50.4762 283.436 48.6692C286.891 46.8623 291.1 45.9588 296.065 45.9588C302.776 45.9588 308.028 47.9544 311.821 51.9456C315.614 55.9368 317.51 62.1023 317.51 70.4422L317.51 110.652L293.146 110.652L293.146 75.8631C293.146 71.8917 292.411 69.082 290.942 67.4339C289.472 65.7858 287.407 64.9617 284.746 64.9617C281.807 64.9617 279.425 66.0737 277.598 68.2976C275.771 70.5216 274.858 74.5128 274.858 80.2713L274.858 110.652L250.612 110.652L250.612 47.3885Z"/>
<path clip-path="url(#TextBounds_3)" d="M376.008 47.3885L398.704 47.3885L398.704 107.137L398.764 109.937C398.764 113.909 397.92 117.691 396.232 121.285C394.544 124.88 392.3 127.789 389.501 130.012C386.701 132.236 383.146 133.845 378.838 134.838C374.529 135.831 369.594 136.327 364.034 136.327C351.326 136.327 342.599 134.421 337.853 130.608C333.107 126.796 330.735 121.692 330.735 115.299C330.735 114.504 330.774 113.432 330.854 112.082L354.384 114.762C354.98 116.947 355.893 118.456 357.124 119.29C358.911 120.521 361.155 121.137 363.856 121.137C367.35 121.137 369.962 120.203 371.689 118.337C373.417 116.47 374.28 113.214 374.28 108.567L374.28 98.9763C371.898 101.796 369.515 103.841 367.132 105.112C363.399 107.098 359.368 108.091 355.039 108.091C346.58 108.091 339.75 104.397 334.547 97.0105C330.854 91.7683 329.007 84.8383 329.007 76.2205C329.007 66.3715 331.39 58.8657 336.155 53.7029C340.921 48.5401 347.156 45.9588 354.861 45.9588C359.785 45.9588 363.846 46.7928 367.043 48.4607C370.24 50.1287 373.228 52.8888 376.008 56.741L376.008 47.3885ZM353.193 78.0672C353.193 82.6342 354.166 86.0198 356.112 88.2239C358.057 90.428 360.619 91.5301 363.796 91.5301C366.814 91.5301 369.346 90.3883 371.391 88.1048C373.437 85.8212 374.459 82.3761 374.459 77.7693C374.459 73.1625 373.387 69.638 371.242 67.1956C369.098 64.7532 366.477 63.532 363.379 63.532C360.281 63.532 357.809 64.6539 355.963 66.8977C354.116 69.1415 353.193 72.8647 353.193 78.0672Z"/>
<path clip-path="url(#TextBounds_3)" d="M410.38 79.199C410.38 69.5486 413.637 61.596 420.15 55.3411C426.663 49.0862 435.459 45.9588 446.539 45.9588C459.208 45.9588 468.779 49.6323 475.252 56.9793C480.455 62.8966 483.056 70.184 483.056 78.8416C483.056 88.5714 479.829 96.5439 473.376 102.759C466.922 108.974 457.997 112.082 446.599 112.082C436.432 112.082 428.211 109.5 421.937 104.338C414.232 97.9438 410.38 89.5642 410.38 79.199ZM434.685 79.1394C434.685 84.7788 435.827 88.9487 438.11 91.6492C440.394 94.3497 443.263 95.7 446.718 95.7C450.213 95.7 453.082 94.3696 455.326 91.7088C457.57 89.048 458.692 84.7788 458.692 78.9012C458.692 73.4207 457.56 69.3401 455.296 66.6595C453.032 63.9788 450.233 62.6385 446.897 62.6385C443.362 62.6385 440.443 63.9986 438.14 66.719C435.836 69.4394 434.685 73.5795 434.685 79.1394Z"/>
</g>
<g fill="#727272" opacity="1" stroke="none"/>
</g>
</svg>
